# Blender 4.4.3
# www.blender.org
mtllib cable_connector_palm_E3M5.mtl
o cable_connector_palm_E3M5
v 23.684109 4.347712 -23.956280
v 23.297550 27.027409 -10.860260
v 33.682648 4.518117 -23.956280
v 33.296101 27.197809 -10.860260
v 23.712959 2.654866 -24.870760
v 33.711498 2.825271 -24.870749
v 23.742649 0.912858 -25.687710
v 33.741188 1.083287 -25.687719
v 23.773079 -0.872668 -26.404530
v 33.771629 -0.702237 -26.404539
v 23.804159 -2.695956 -27.018909
v 33.802708 -2.525551 -27.018909
v 23.835770 -4.551155 -27.528870
v 33.834328 -4.380750 -27.528860
v 23.867840 -6.432298 -27.932749
v 33.866390 -6.261892 -27.932739
v 23.900240 -8.333321 -28.229259
v 33.898788 -8.162904 -28.229259
v 23.932878 -10.248099 -28.417450
v 33.931419 -10.077680 -28.417450
v 23.965639 -12.170460 -28.496719
v 33.964188 -12.000040 -28.496719
v 24.116508 -21.022190 -28.610279
v 34.115047 -20.851770 -28.610279
v 24.143429 -22.601530 -19.133350
v 34.141968 -22.431110 -19.133350
v 23.306070 26.527470 -9.994233
v 33.304630 26.697870 -9.994228
vn -0.0085 0.4999 -0.8660
vn -0.0081 0.4752 -0.8799
vn -0.0072 0.4245 -0.9054
vn -0.0063 0.3725 -0.9280
vn -0.0054 0.3192 -0.9477
vn -0.0045 0.2650 -0.9642
vn -0.0036 0.2099 -0.9777
vn -0.0026 0.1541 -0.9881
vn -0.0017 0.0978 -0.9952
vn -0.0007 0.0412 -0.9992
vn -0.0002 0.0128 -0.9999
vn 0.0168 -0.9862 -0.1644
vn 0.0031 -0.1828 0.9831
vn -0.0148 0.8659 0.5000
vn -0.9999 -0.0170 -0.0000
vn 0.9999 0.0170 -0.0000
s 0
f 1//1 2//1 3//1
f 3//1 2//1 4//1
f 5//2 1//2 6//2
f 6//2 1//2 3//2
f 7//3 5//3 8//3
f 8//3 5//3 6//3
f 9//4 7//4 10//4
f 10//4 7//4 8//4
f 11//5 9//5 12//5
f 12//5 9//5 10//5
f 13//6 11//6 14//6
f 14//6 11//6 12//6
f 15//7 13//7 16//7
f 16//7 13//7 14//7
f 17//8 15//8 18//8
f 18//8 15//8 16//8
f 19//9 17//9 20//9
f 20//9 17//9 18//9
f 21//10 19//10 22//10
f 22//10 19//10 20//10
f 23//11 21//11 24//11
f 24//11 21//11 22//11
f 25//12 23//12 26//12
f 26//12 23//12 24//12
f 27//13 25//13 28//13
f 28//13 25//13 26//13
f 2//14 27//14 4//14
f 4//14 27//14 28//14
f 21//15 23//15 25//15
f 27//15 2//15 25//15
f 25//15 2//15 1//15
f 1//15 5//15 25//15
f 25//15 5//15 7//15
f 25//15 7//15 9//15
f 9//15 11//15 25//15
f 25//15 11//15 13//15
f 25//15 13//15 15//15
f 15//15 17//15 25//15
f 25//15 17//15 19//15
f 25//15 19//15 21//15
f 26//16 24//16 22//16
f 4//16 28//16 3//16
f 3//16 28//16 26//16
f 10//16 8//16 26//16
f 26//16 8//16 6//16
f 26//16 6//16 3//16
f 22//16 20//16 26//16
f 26//16 20//16 18//16
f 26//16 18//16 16//16
f 16//16 14//16 26//16
f 26//16 14//16 12//16
f 26//16 12//16 10//16
