# Blender 4.4.3
# www.blender.org
mtllib cable_connector_base_E3M5.mtl
o cable_connector_base_E3M5
v 28.334309 57.125717 183.264603
v 28.330000 58.141460 183.264603
v 28.338669 58.141449 183.264603
v 28.199429 25.681049 183.264603
v 18.334539 57.079628 183.264603
v 5.728507 25.681049 183.264603
v 18.330109 58.121250 183.264603
v 27.648230 50.181850 197.176300
v 26.239719 57.851780 183.764603
v 23.335409 58.143459 183.264603
v 26.214100 58.004219 183.501892
v 23.691029 58.143238 183.264603
v 26.191029 58.141968 183.264603
v 23.442410 50.010220 198.155090
v 23.548119 41.856117 213.061600
v 29.442879 41.854939 212.165100
v 30.393980 37.892109 219.454895
v 23.652159 33.711121 227.929291
v 31.466429 33.706730 227.263596
v 23.754759 25.557240 242.791016
v 33.754761 25.557240 242.791016
v 20.553890 45.928257 207.014389
v 20.943380 50.000988 198.961899
v 18.429470 49.991817 199.779190
v 19.203720 53.520699 192.488190
v 17.293900 44.380791 211.778488
v 16.819729 41.848038 217.358292
v 20.193819 41.855049 215.197495
v 16.694189 25.557240 252.456299
v 19.047710 25.557240 249.234589
v 19.290110 29.632439 240.529587
v 21.362289 54.073208 191.039795
v 21.809620 58.136299 183.264603
v 20.284660 58.128990 183.264603
v 22.572409 58.139908 183.264603
v 19.561930 33.707130 231.955017
v 15.456800 33.703178 235.991287
v 14.867880 29.630350 245.703018
v 14.340670 25.557240 255.678101
v 22.193300 50.005600 198.558197
v 21.871469 41.858578 214.123688
v 21.607449 33.709129 229.941895
v 21.497120 29.633490 237.945801
v 19.863169 37.781338 223.511017
v 16.107410 37.775749 226.543091
v 15.656250 34.993481 232.969498
v 5.728507 25.681049 250.421799
v 5.680414 25.557240 250.678101
v 10.010540 25.557240 253.178101
v 19.307169 58.125149 183.264603
v 16.809629 49.985989 199.940689
v 14.427250 41.843597 217.154388
v 12.175600 25.557240 254.428101
v 13.811219 33.701931 235.444092
v 12.160880 33.700687 234.900192
v 15.167689 49.980247 200.118011
v 12.005260 41.839237 216.971390
v 8.842841 33.698238 233.824692
v 28.324348 58.141449 183.264603
v 27.265059 58.141670 183.264603
v 29.262400 49.998680 197.037598
v 26.376968 58.141918 183.264603
v 30.857460 49.995388 196.567688
v 33.376240 41.849339 209.870789
v 37.249050 25.557240 238.055496
v 34.781338 33.704170 224.201004
v 36.084278 25.557240 239.634018
v 33.672340 33.705029 225.224701
v 34.919518 25.557240 241.212494
v 32.567528 33.705879 226.245392
v 31.398378 41.852180 211.025894
v 35.895031 33.703289 223.173889
v 38.413818 25.557240 236.477097
v 28.315020 52.627831 188.871094
v 29.137810 47.380497 195.537003
v 28.296309 48.266788 194.607788
v 28.278210 44.046280 200.454102
v 30.589100 47.379230 195.064301
v 32.843880 37.632740 206.864014
v 31.145010 37.634197 208.015289
v 35.098671 27.886250 218.663696
v 31.484909 27.888319 222.713593
v 30.793579 31.094090 218.208191
v 32.382568 27.887810 221.705200
v 30.303900 37.634930 208.585098
v 33.283779 27.887289 220.694290
v 34.188988 27.886770 219.680588
v 33.754761 18.139759 236.684601
v 34.654430 18.139759 235.129288
v 35.554100 18.139759 233.574005
v 36.453777 18.139759 232.018692
v 37.353451 18.139759 230.463394
v 29.467508 37.635658 209.151489
v 28.226210 31.925819 217.316101
v 28.199429 25.681049 226.086197
v 23.714340 21.937180 231.493088
v 23.674280 25.681049 226.371887
v 25.936899 25.681049 226.229797
v 23.754759 18.139759 236.684601
v 23.754759 21.848499 239.737793
v 23.747690 23.702869 241.260498
v 20.616001 21.935139 237.318390
v 17.510990 21.933109 243.148300
v 21.659920 25.681049 229.650101
v 17.661749 25.681049 236.142792
v 17.393869 18.139759 250.389801
v 20.574310 18.139759 243.537201
v 22.164539 18.139759 240.110901
v 21.782890 21.848499 243.061798
v 20.191689 19.994129 244.962692
v 16.621710 19.994129 251.710297
v 19.430330 23.702869 247.809097
v 17.839140 21.848499 249.709900
v 19.811010 21.848499 246.385895
v 15.867270 21.848499 253.034012
v 13.063749 18.139759 247.889801
v 15.293300 25.681049 235.201294
v 14.135910 25.681049 234.744019
v 8.733619 18.139759 245.389801
v 10.592979 25.681049 233.358292
v 7.969012 25.681049 242.600693
v 28.334309 61.520287 168.190796
v 28.330000 62.456467 168.463699
v 18.334539 61.477818 168.178391
v 18.330109 62.437840 168.458298
vn 0.0016 -0.0000 -1.0000
vn -0.0000 -0.0000 -1.0000
vn 0.0017 0.8682 0.4963
vn 0.0005 0.8650 0.5018
vn 0.0005 0.8653 0.5013
vn 0.0004 0.8649 0.5020
vn 0.0754 0.8753 0.4776
vn 0.0756 0.8750 0.4781
vn 0.0728 0.8755 0.4777
vn 0.0715 0.8802 0.4692
vn 0.0594 0.8756 0.4793
vn 0.0403 0.8830 0.4677
vn 0.0414 0.8761 0.4804
vn -0.0000 0.8855 0.4647
vn 0.1438 0.8803 0.4522
vn 0.1409 0.8852 0.4434
vn 0.2653 0.8693 0.4171
vn 0.5139 0.7713 0.3754
vn -0.0043 0.8864 0.4630
vn -0.0041 0.8776 0.4794
vn 0.3967 0.8242 0.4042
vn 0.4334 0.8214 0.3708
vn 0.4378 0.8173 0.3746
vn 0.4829 0.8015 0.3528
vn 0.0764 0.8883 0.4528
vn 0.0816 0.8847 0.4591
vn 0.1448 0.8769 0.4584
vn 0.1428 0.8804 0.4522
vn 0.2060 0.8652 0.4571
vn -0.0042 0.8864 0.4629
vn 0.0595 0.8807 0.4699
vn 0.1476 0.8717 0.4673
vn 0.1456 0.8753 0.4611
vn 0.2911 0.8402 0.4575
vn 0.2820 0.8510 0.4431
vn 0.4250 0.7951 0.4326
vn 0.4108 0.8101 0.4182
vn 0.4886 0.7664 0.4171
vn 0.2748 0.8591 0.4319
vn 0.3251 0.8549 0.4043
vn 0.3369 0.8432 0.4189
vn 0.3779 0.8397 0.3901
vn 0.3774 0.8424 0.3846
vn 0.2125 0.8773 0.4303
vn 0.2340 0.8662 0.4415
vn 0.2784 0.8549 0.4378
vn 0.2746 0.8591 0.4319
vn 0.3415 0.8332 0.4349
vn 0.4022 0.8189 0.4095
vn 0.4108 0.8102 0.4182
vn 0.4597 0.7964 0.3930
vn 0.4882 0.7665 0.4173
vn -0.2248 0.8933 0.3893
vn -0.0035 0.8947 0.4466
vn 0.0717 0.8921 0.4461
vn 0.0024 0.9038 0.4279
vn 0.0392 0.9037 0.4263
vn 0.0405 0.8977 0.4388
vn -0.2080 0.9093 0.3603
vn -0.1551 0.9126 0.3782
vn -0.2134 0.9044 0.3696
vn -0.1295 0.9113 0.3908
vn -0.2160 0.9011 0.3760
vn -0.0036 0.8989 0.4382
vn 0.0445 0.8963 0.4413
vn 0.0435 0.9008 0.4321
vn -0.0341 0.9024 0.4295
vn -0.0329 0.9100 0.4134
vn -0.1338 0.9020 0.4106
vn -0.1261 0.9175 0.3771
vn -0.1278 0.9151 0.3823
vn -0.1269 0.9150 0.3830
vn -0.1243 0.9137 0.3869
vn -0.0759 0.9099 0.4078
vn -0.0360 0.9146 0.4027
vn -0.0367 0.9111 0.4105
vn 0.0002 0.8608 0.5089
vn 0.0002 0.8648 0.5021
vn -0.0001 0.8649 0.5019
vn -0.0191 0.8670 0.4979
vn 0.0002 0.8680 0.4966
vn -0.0000 0.8609 0.5088
vn -0.0000 0.8529 0.5221
vn 0.1479 0.8557 0.4959
vn 0.1479 0.8557 0.4960
vn 0.5018 0.7817 0.3703
vn 0.3767 0.8320 0.4074
vn 0.4934 0.7899 0.3641
vn 0.3692 0.8394 0.3990
vn 0.4852 0.7977 0.3580
vn 0.2604 0.8569 0.4449
vn 0.2552 0.8631 0.4359
vn 0.3820 0.8267 0.4132
vn 0.3143 0.8443 0.4341
vn 0.3694 0.8392 0.3991
vn 0.3696 0.8391 0.3990
vn 0.3620 0.8463 0.3908
vn 0.1397 0.8611 0.4888
vn 0.1396 0.8648 0.4823
vn 0.2666 0.8500 0.4543
vn 0.2676 0.8487 0.4562
vn 0.3927 0.8156 0.4251
vn 0.3844 0.8241 0.4161
vn 0.5105 0.7730 0.3767
vn -0.1672 -0.7846 -0.5970
vn -0.2026 -0.7937 -0.5736
vn -0.3719 -0.7493 -0.5479
vn -0.5038 -0.7385 -0.4481
vn -0.4421 -0.7521 -0.4887
vn -0.5138 -0.7256 -0.4577
vn -0.3596 -0.7681 -0.5298
vn -0.5198 -0.7174 -0.4638
vn -0.5192 -0.7176 -0.4641
vn -0.6373 -0.6767 -0.3687
vn -0.5053 -0.7367 -0.4494
vn -0.6462 -0.6654 -0.3738
vn -0.5143 -0.7251 -0.4581
vn -0.6553 -0.6534 -0.3790
vn -0.5234 -0.7127 -0.4670
vn -0.6644 -0.6409 -0.3844
vn -0.5327 -0.6997 -0.4761
vn -0.3491 -0.7832 -0.5145
vn -0.3547 -0.7751 -0.5228
vn -0.3548 -0.7751 -0.5228
vn -0.2403 -0.7834 -0.5732
vn -0.1912 -0.7882 -0.5849
vn -0.1935 -0.7824 -0.5920
vn -0.0947 -0.7763 -0.6232
vn -0.1055 -0.8073 -0.5806
vn -0.0625 -0.8134 -0.5783
vn -0.0622 -0.8129 -0.5790
vn -0.0370 -0.8069 -0.5896
vn -0.0414 -0.8171 -0.5750
vn -0.0313 -0.8221 -0.5685
vn -0.0360 -0.8231 -0.5668
vn -0.0000 -0.8110 -0.5850
vn -0.0378 -0.8067 -0.5898
vn 0.7649 -0.4681 0.4425
vn 0.6992 -0.4949 0.5160
vn 0.7741 -0.4474 0.4478
vn 0.7072 -0.4769 0.5219
vn 0.7831 -0.4261 0.4530
vn 0.7151 -0.4583 0.5277
vn 0.7919 -0.4039 0.4580
vn 0.7229 -0.4391 0.5334
vn -0.0000 -0.6356 0.7720
vn -0.0006 -0.6346 0.7728
vn -0.0000 -0.6365 0.7712
vn -0.7173 -0.5826 -0.3822
vn -0.6186 -0.6872 -0.3809
vn -0.6542 -0.6406 -0.4020
vn -0.7395 -0.5462 -0.3935
vn -0.7396 -0.5459 -0.3936
vn -0.7167 -0.6129 -0.3326
vn -0.7023 -0.6055 -0.3743
vn -0.7501 -0.5622 -0.3482
vn 0.7942 -0.3838 0.4711
vn 0.8987 -0.1352 0.4171
vn 0.8704 -0.1744 0.4605
vn 0.9043 0.0777 0.4197
vn 0.7762 -0.2757 0.5670
vn 0.8250 -0.1490 0.5452
vn 0.7251 -0.4400 0.5297
vn 0.8098 -0.2433 0.5339
vn 0.8098 -0.2435 0.5339
vn 0.8408 -0.2102 0.4988
vn 0.8571 -0.3275 0.3978
vn 0.8197 -0.3026 0.4863
vn 0.8515 -0.2700 0.4494
vn 0.8703 -0.1747 0.4605
vn 0.8600 -0.0143 0.5102
vn 0.8600 -0.0143 0.5101
vn 0.8547 -0.1116 0.5070
vn 0.8044 -0.0878 0.5876
vn 0.2570 -0.8578 -0.4452
vn 0.1831 -0.8685 -0.4607
vn 0.2304 -0.8538 -0.4669
vn 0.1885 -0.8584 -0.4771
vn 0.2673 -0.8451 -0.4630
vn 0.1952 -0.8443 -0.4990
vn -0.3860 -0.6356 0.6686
vn -0.3857 -0.6363 0.6681
vn -0.3863 -0.6354 0.6686
vn -0.3847 -0.6348 0.6701
vn 0.9816 -0.0042 -0.1910
vn 0.9830 0.0045 -0.1834
vn 0.9829 0.0048 -0.1838
vn 0.9832 0.0060 -0.1825
vn 0.9831 0.0062 -0.1828
vn 0.9833 0.0066 -0.1821
vn 0.9832 0.0067 -0.1823
vn 0.9833 0.0069 -0.1819
vn -0.9427 -0.1948 -0.2710
vn -0.9428 -0.1955 -0.2701
vn -0.9436 -0.1947 -0.2679
vn 1.0000 -0.0043 -0.0000
vn -0.9321 0.3621 -0.0000
vn -0.0000 -1.0000 -0.0000
vn 0.0001 -0.0000 -1.0000
vn 1.0000 0.0042 0.0012
vn 0.0044 -0.9600 -0.2799
vn -0.0000 0.2799 -0.9600
vn -0.0019 0.9600 0.2799
vn -0.0019 0.9600 0.2800
vn -1.0000 -0.0043 -0.0012
s 0
f 1//1 2//1 3//1
f 1//2 4//2 5//2
f 5//2 4//2 6//2
f 5//2 6//2 7//2
f 8//3 9//3 10//3
f 10//4 9//4 11//4
f 10//5 11//5 12//5
f 12//6 11//6 13//6
f 10//7 14//7 8//7
f 8//8 14//8 15//8
f 8//9 15//9 16//9
f 16//10 15//10 17//10
f 17//11 15//11 18//11
f 17//12 18//12 19//12
f 19//13 18//13 20//13
f 19//14 20//14 21//14
f 22//15 23//15 24//15
f 24//16 23//16 25//16
f 26//17 27//17 28//17
f 29//18 30//18 31//18
f 32//19 33//19 34//19
f 14//20 10//20 35//20
f 36//21 37//21 31//21
f 31//22 37//22 38//22
f 31//23 38//23 29//23
f 29//24 38//24 39//24
f 34//25 25//25 32//25
f 32//26 25//26 23//26
f 32//27 23//27 40//27
f 40//28 23//28 22//28
f 40//29 22//29 41//29
f 33//30 32//30 35//30
f 35//31 32//31 40//31
f 35//32 40//32 14//32
f 14//33 40//33 41//33
f 14//34 41//34 15//34
f 15//35 41//35 42//35
f 15//36 42//36 18//36
f 18//37 42//37 43//37
f 18//38 43//38 20//38
f 28//39 27//39 44//39
f 44//40 27//40 45//40
f 44//41 45//41 36//41
f 36//42 45//42 46//42
f 36//43 46//43 37//43
f 24//44 26//44 22//44
f 22//45 26//45 28//45
f 22//46 28//46 41//46
f 41//47 28//47 44//47
f 41//48 44//48 42//48
f 42//49 44//49 36//49
f 42//50 36//50 43//50
f 43//51 36//51 31//51
f 43//52 31//52 20//52
f 20//18 31//18 30//18
f 47//53 48//53 49//53
f 34//54 50//54 25//54
f 25//55 50//55 51//55
f 52//56 26//56 51//56
f 51//57 26//57 24//57
f 51//58 24//58 25//58
f 39//59 38//59 53//59
f 53//60 38//60 54//60
f 53//61 54//61 49//61
f 49//62 54//62 55//62
f 49//63 55//63 47//63
f 50//64 7//64 51//64
f 51//65 7//65 56//65
f 51//66 56//66 52//66
f 52//67 56//67 57//67
f 52//68 57//68 55//68
f 55//69 57//69 58//69
f 55//69 58//69 47//69
f 38//70 37//70 54//70
f 54//71 37//71 46//71
f 54//72 46//72 55//72
f 55//73 46//73 45//73
f 55//74 45//74 52//74
f 52//75 45//75 27//75
f 52//76 27//76 26//76
f 59//77 60//77 61//77
f 62//78 13//78 11//78
f 11//79 9//79 62//79
f 62//80 9//80 8//80
f 62//81 8//81 60//81
f 59//82 61//82 2//82
f 3//83 2//83 63//83
f 63//84 2//84 61//84
f 63//85 61//85 64//85
f 65//86 66//86 67//86
f 67//87 66//87 68//87
f 67//88 68//88 69//88
f 69//89 68//89 70//89
f 69//90 70//90 21//90
f 8//91 16//91 71//91
f 71//92 16//92 17//92
f 66//93 71//93 68//93
f 68//94 71//94 17//94
f 68//95 17//95 70//95
f 70//96 17//96 19//96
f 70//97 19//97 21//97
f 60//98 8//98 61//98
f 61//99 8//99 71//99
f 61//100 71//100 64//100
f 64//101 71//101 66//101
f 64//102 66//102 72//102
f 72//103 66//103 65//103
f 72//104 65//104 73//104
f 74//105 75//105 76//105
f 76//106 75//106 77//106
f 78//107 79//107 80//107
f 80//107 79//107 81//107
f 82//108 83//108 84//108
f 84//109 83//109 85//109
f 84//110 85//110 86//110
f 86//111 85//111 80//111
f 86//112 80//112 87//112
f 87//113 80//113 81//113
f 88//114 82//114 89//114
f 89//115 82//115 84//115
f 89//116 84//116 90//116
f 90//117 84//117 86//117
f 90//118 86//118 91//118
f 91//119 86//119 87//119
f 91//120 87//120 92//120
f 92//121 87//121 81//121
f 83//122 93//122 85//122
f 85//123 93//123 77//123
f 85//124 77//124 80//124
f 80//125 77//125 75//125
f 80//126 75//126 78//126
f 78//127 75//127 74//127
f 78//128 74//128 1//128
f 77//129 93//129 94//129
f 94//130 93//130 83//130
f 94//131 83//131 95//131
f 96//132 97//132 98//132
f 83//133 82//133 95//133
f 95//134 82//134 88//134
f 95//135 88//135 98//135
f 98//136 88//136 99//136
f 98//137 99//137 96//137
f 92//138 73//138 91//138
f 91//139 73//139 65//139
f 91//140 65//140 90//140
f 90//141 65//141 67//141
f 90//142 67//142 89//142
f 89//143 67//143 69//143
f 89//144 69//144 88//144
f 88//145 69//145 21//145
f 99//146 88//146 100//146
f 100//146 88//146 21//146
f 100//147 21//147 101//147
f 101//148 21//148 20//148
f 102//149 103//149 104//149
f 104//150 103//150 105//150
f 104//151 97//151 102//151
f 102//152 97//152 96//152
f 102//153 96//153 99//153
f 106//154 103//154 107//154
f 107//155 103//155 102//155
f 107//156 102//156 108//156
f 108//156 102//156 99//156
f 109//157 100//157 101//157
f 108//158 110//158 107//158
f 107//159 110//159 111//159
f 107//160 111//160 106//160
f 30//161 29//161 112//161
f 112//162 29//162 113//162
f 109//157 101//157 114//157
f 20//163 30//163 101//163
f 101//164 30//164 112//164
f 101//165 112//165 114//165
f 114//166 112//166 113//166
f 99//167 100//167 108//167
f 108//168 100//168 109//168
f 108//169 109//169 110//169
f 110//166 109//166 114//166
f 110//170 114//170 111//170
f 111//171 114//171 113//171
f 111//172 113//172 115//172
f 115//173 113//173 29//173
f 115//174 29//174 39//174
f 103//175 106//175 116//175
f 105//176 103//176 117//176
f 117//177 103//177 116//177
f 117//178 116//178 118//178
f 118//179 116//179 119//179
f 118//180 119//180 120//180
f 49//181 48//181 119//181
f 106//182 111//182 116//182
f 116//182 111//182 119//182
f 115//181 39//181 53//181
f 49//181 119//181 53//181
f 53//183 119//183 111//183
f 53//184 111//184 115//184
f 1//185 3//185 78//185
f 78//186 3//186 63//186
f 78//187 63//187 79//187
f 79//188 63//188 64//188
f 79//189 64//189 81//189
f 81//190 64//190 72//190
f 81//191 72//191 92//191
f 92//192 72//192 73//192
f 48//193 47//193 119//193
f 119//194 47//194 121//194
f 119//195 121//195 120//195
f 1//196 74//196 4//196
f 4//196 74//196 76//196
f 76//196 77//196 4//196
f 4//196 77//196 94//196
f 4//196 94//196 95//196
f 6//197 47//197 58//197
f 58//197 57//197 6//197
f 6//197 57//197 56//197
f 6//197 56//197 7//197
f 47//198 6//198 121//198
f 121//198 6//198 120//198
f 97//198 6//198 98//198
f 98//198 6//198 4//198
f 98//198 4//198 95//198
f 120//198 6//198 118//198
f 118//198 6//198 97//198
f 118//198 97//198 117//198
f 117//198 97//198 104//198
f 117//198 104//198 105//198
f 34//2 59//2 50//2
f 50//2 59//2 7//2
f 35//2 10//2 12//2
f 13//2 62//2 34//2
f 34//2 62//2 60//2
f 34//2 60//2 59//2
f 13//2 34//2 12//2
f 12//199 34//199 33//199
f 12//2 33//2 35//2
f 122//200 123//200 1//200
f 1//200 123//200 2//200
f 124//201 122//201 5//201
f 5//201 122//201 1//201
f 122//202 124//202 123//202
f 123//202 124//202 125//202
f 125//203 7//203 123//203
f 123//203 7//203 59//203
f 123//204 59//204 2//204
f 125//205 124//205 7//205
f 7//205 124//205 5//205
