# Blender 4.4.3
# www.blender.org
mtllib mounting_plate_G1M5.mtl
o Ur_Hand_G_Mounting_Plate
v -58.476360 -1.000000 28.436129
v -58.476360 -1.000000 -25.654259
v -31.803289 -1.000000 -1.724324
v -32.113079 -1.000000 -53.500000
v -13.373469 -1.000000 -28.906279
v -36.644680 -1.000000 -52.936398
v -19.274799 -1.000000 -25.355560
v -24.274858 -1.000000 -20.619249
v -44.620277 -1.000000 -48.631580
v -40.900181 -1.000000 -51.279949
v -54.571270 -1.000000 37.121098
v -26.361898 -1.000000 17.873810
v -51.429058 -1.000000 41.364861
v -21.903229 -1.000000 23.122959
v -46.920837 -1.000000 45.840347
v -41.533249 -1.000000 49.206070
v -58.142799 -1.000000 -29.151440
v -57.154167 -1.000000 -32.522511
v -28.139860 -1.000000 -14.918810
v -55.546097 -1.000000 -35.645908
v -50.502300 -1.000000 -42.491379
v -30.689070 -1.000000 -8.520778
v -35.533970 -1.000000 51.294788
v -16.420389 -1.000000 27.290899
v -29.221060 -1.000000 52.002758
v 46.920837 -1.000000 45.840347
v 21.903229 -1.000000 23.122959
v 51.429058 -1.000000 41.364861
v 26.361898 -1.000000 17.873810
v 54.571270 -1.000000 37.121098
v 57.364170 -1.000000 32.639729
v -31.430420 -1.000000 5.152756
v -29.587910 -1.000000 11.788899
v -58.193600 -1.000000 30.610260
v -57.364170 -1.000000 32.639729
v 3.443591 -1.000000 31.663290
v 29.221060 -1.000000 52.002758
v -3.443591 -1.000000 31.663290
v -10.169750 -1.000000 30.182758
v 10.169750 -1.000000 30.182758
v 16.420389 -1.000000 27.290899
v 35.533970 -1.000000 51.294788
v 41.533249 -1.000000 49.206070
v 58.193600 -1.000000 30.610260
v 29.587910 -1.000000 11.788899
v 58.476360 -1.000000 28.436129
v 31.430420 -1.000000 5.152756
v 58.476360 -1.000000 -25.654259
v 31.803289 -1.000000 -1.724324
v 30.689070 -1.000000 -8.520778
v 58.142799 -1.000000 -29.151440
v 28.139860 -1.000000 -14.918810
v 57.154167 -1.000000 -32.522511
v 55.546097 -1.000000 -35.645908
v 13.373469 -1.000000 -28.906279
v 6.846808 -1.000000 -31.105360
v 32.113079 -1.000000 -53.500000
v 0.000000 -1.000000 -31.849998
v -6.846808 -1.000000 -31.105360
v 50.502300 -1.000000 -42.491379
v 24.274858 -1.000000 -20.619249
v 44.620277 -1.000000 -48.631580
v 19.274799 -1.000000 -25.355560
v 40.900181 -1.000000 -51.279949
v 36.644680 -1.000000 -52.936398
v 52.597900 5.000000 42.304970
v 55.811527 5.000000 37.964767
v 29.221060 5.000000 53.502758
v -29.221060 5.000000 53.502758
v 32.113079 5.000000 -55.000000
v 56.808510 5.000000 -36.456051
v 51.650078 5.000000 -43.457088
v -55.811527 5.000000 37.964767
v 59.976360 5.000000 -25.654259
v 59.615757 5.000000 -29.434990
v -32.113079 5.000000 -55.000000
v -59.976360 5.000000 -25.654259
v -59.976360 5.000000 28.436129
v -59.643707 5.000000 30.993929
v 58.667900 5.000000 33.381550
v -58.667900 5.000000 33.381550
v 58.546959 5.000000 -33.079388
v 45.634380 5.000000 -49.736839
v 41.612648 5.000000 -52.599949
v 37.012108 5.000000 -54.390709
v -51.650078 5.000000 -43.457088
v -56.808510 5.000000 -36.456051
v 35.866230 5.000000 52.757538
v 42.181259 5.000000 50.558868
v 47.852398 5.000000 47.016010
v 59.643707 5.000000 30.993929
v 59.976360 5.000000 28.436129
v -45.634380 5.000000 -49.736839
v -37.012108 5.000000 -54.390709
v -41.612648 5.000000 -52.599949
v -52.597900 5.000000 42.304970
v -35.866230 5.000000 52.757538
v -47.852398 5.000000 47.016010
v -42.181259 5.000000 50.558868
v -58.546959 5.000000 -33.079388
v -59.615757 5.000000 -29.434990
v 45.634380 0.500000 -49.736839
v 51.650078 0.500000 -43.457088
v 56.808510 0.500000 -36.456051
v 58.546959 0.500000 -33.079388
v 59.615757 0.500000 -29.434990
v 59.976360 0.500000 -25.654259
v 59.976360 0.500000 28.436129
v 59.643707 0.500000 30.993929
v 58.667900 0.500000 33.381550
v 55.811527 0.500000 37.964767
v 52.597900 0.500000 42.304970
v 47.852398 0.500000 47.016010
v 42.181259 0.500000 50.558868
v 35.866230 0.500000 52.757538
v 29.221060 0.500000 53.502758
v -29.221060 0.500000 53.502758
v -35.866230 0.500000 52.757538
v -42.181259 0.500000 50.558868
v -47.852398 0.500000 47.016010
v -52.597900 0.500000 42.304970
v -55.811527 0.500000 37.964767
v -58.667900 0.500000 33.381550
v -59.643707 0.500000 30.993929
v -59.976360 0.500000 28.436129
v -59.976360 0.500000 -25.654259
v -59.615757 0.500000 -29.434990
v -58.546959 0.500000 -33.079388
v -56.808510 0.500000 -36.456051
v -51.650078 0.500000 -43.457088
v -45.634380 0.500000 -49.736839
v -41.612648 0.500000 -52.599949
v -37.012108 0.500000 -54.390709
v -32.113079 0.500000 -55.000000
v 32.113079 0.500000 -55.000000
v 37.012108 0.500000 -54.390709
v 41.612648 0.500000 -52.599949
v 0.000000 0.000000 -31.600000
v 6.793066 0.000000 -30.861210
v 0.000000 0.000000 -0.000000
v -6.793066 0.000000 -30.861210
v -24.084320 0.000000 -20.457409
v -19.123510 0.000000 -25.156540
v -13.268499 0.000000 -28.679379
v -31.553659 0.000000 -1.710790
v -30.448179 0.000000 -8.453896
v -27.918980 0.000000 -14.801709
v -26.154970 0.000000 17.733509
v -29.355659 0.000000 11.696370
v -31.183720 0.000000 5.112310
v -10.089930 0.000000 29.945839
v -16.291500 0.000000 27.076689
v -21.731300 0.000000 22.941460
v 10.089930 0.000000 29.945839
v 3.416561 0.000000 31.414759
v -3.416561 0.000000 31.414759
v 26.154970 0.000000 17.733509
v 21.731300 0.000000 22.941460
v 16.291500 0.000000 27.076689
v 31.553659 0.000000 -1.710790
v 31.183720 0.000000 5.112310
v 29.355659 0.000000 11.696370
v 24.084320 0.000000 -20.457409
v 27.918980 0.000000 -14.801709
v 30.448179 0.000000 -8.453896
v 13.268499 0.000000 -28.679379
v 19.123510 0.000000 -25.156540
v 0.000000 -0.750000 -31.600000
v 6.793066 -0.750000 -30.861210
v 13.268499 -0.750000 -28.679379
v 19.123510 -0.750000 -25.156540
v 24.084320 -0.750000 -20.457409
v 27.918980 -0.750000 -14.801709
v 30.448179 -0.750000 -8.453896
v 31.553659 -0.750000 -1.710790
v 31.183720 -0.750000 5.112310
v 29.355659 -0.750000 11.696370
v 26.154970 -0.750000 17.733509
v 21.731300 -0.750000 22.941460
v 16.291500 -0.750000 27.076689
v 10.089930 -0.750000 29.945839
v 3.416561 -0.750000 31.414759
v -3.416561 -0.750000 31.414759
v -10.089930 -0.750000 29.945839
v -16.291500 -0.750000 27.076689
v -21.731300 -0.750000 22.941460
v -26.154970 -0.750000 17.733509
v -29.355659 -0.750000 11.696370
v -31.183720 -0.750000 5.112310
v -31.553659 -0.750000 -1.710790
v -30.448179 -0.750000 -8.453896
v -27.918980 -0.750000 -14.801709
v -24.084320 -0.750000 -20.457409
v -19.123510 -0.750000 -25.156540
v -13.268499 -0.750000 -28.679379
v -6.793066 -0.750000 -30.861210
v 0.000000 -0.750000 -31.600000
vn -0.0000 -1.0000 -0.0000
vn -0.0000 1.0000 -0.0000
vn 0.7221 -0.0000 -0.6918
vn 0.8051 -0.0000 -0.5932
vn 0.8891 -0.0000 -0.4577
vn 0.9596 -0.0000 -0.2814
vn 0.9955 -0.0000 -0.0949
vn 1.0000 -0.0000 -0.0000
vn 0.9916 -0.0000 0.1290
vn 0.9257 -0.0000 0.3783
vn 0.8487 -0.0000 0.5289
vn 0.8037 -0.0000 0.5951
vn 0.7045 -0.0000 0.7097
vn 0.5298 -0.0000 0.8481
vn 0.3288 -0.0000 0.9444
vn 0.1114 -0.0000 0.9938
vn -0.0000 -0.0000 1.0000
vn -0.1114 -0.0000 0.9938
vn -0.3288 -0.0000 0.9444
vn -0.5298 -0.0000 0.8481
vn -0.7045 -0.0000 0.7097
vn -0.8037 -0.0000 0.5951
vn -0.8487 -0.0000 0.5289
vn -0.9257 -0.0000 0.3783
vn -0.9916 -0.0000 0.1290
vn -1.0000 -0.0000 -0.0000
vn -0.9955 -0.0000 -0.0949
vn -0.9596 -0.0000 -0.2814
vn -0.8891 -0.0000 -0.4577
vn -0.8051 -0.0000 -0.5932
vn -0.7221 -0.0000 -0.6918
vn -0.5800 -0.0000 -0.8146
vn -0.3627 -0.0000 -0.9319
vn -0.1234 -0.0000 -0.9924
vn -0.0000 -0.0000 -1.0000
vn 0.1234 -0.0000 -0.9924
vn 0.3627 -0.0000 -0.9319
vn 0.5800 -0.0000 -0.8146
vn 0.5112 -0.7064 -0.4897
vn 0.5699 -0.7064 -0.4199
vn 0.6301 -0.7055 -0.3244
vn 0.6801 -0.7055 -0.1994
vn 0.7055 -0.7055 -0.0673
vn 0.0876 -0.7044 -0.7044
vn 0.2575 -0.7044 -0.6615
vn 0.4117 -0.7044 -0.5782
vn 0.4117 -0.7044 -0.5783
vn 0.7071 -0.7071 -0.0000
vn -0.0000 -0.7071 -0.7071
vn 0.7041 -0.7041 0.0916
vn 0.6573 -0.7041 0.2686
vn -0.4117 -0.7044 -0.5782
vn -0.2575 -0.7044 -0.6615
vn -0.0876 -0.7044 -0.7044
vn 0.6003 -0.7068 0.3741
vn 0.5685 -0.7068 0.4209
vn -0.5699 -0.7064 -0.4199
vn -0.5112 -0.7064 -0.4897
vn -0.5111 -0.7064 -0.4897
vn 0.4997 -0.7049 0.5034
vn 0.3758 -0.7049 0.6016
vn 0.2332 -0.7049 0.6699
vn 0.0790 -0.7049 0.7049
vn 0.0791 -0.7049 0.7049
vn -0.7055 -0.7055 -0.0673
vn -0.6801 -0.7055 -0.1994
vn -0.6301 -0.7055 -0.3244
vn -0.0000 -0.7071 0.7071
vn -0.7071 -0.7071 -0.0000
vn -0.0791 -0.7049 0.7049
vn -0.2332 -0.7049 0.6699
vn -0.3758 -0.7049 0.6016
vn -0.4997 -0.7049 0.5034
vn -0.6573 -0.7041 0.2686
vn -0.7041 -0.7041 0.0916
vn -0.5685 -0.7068 0.4209
vn -0.6003 -0.7068 0.3741
vn -0.1081 -0.0000 0.9941
vn -0.3193 -0.0000 0.9477
vn -0.5156 -0.0000 0.8569
vn -0.6877 -0.0000 0.7260
vn -0.8277 -0.0000 0.5612
vn -0.9290 -0.0000 0.3701
vn -0.9868 -0.0000 0.1618
vn -0.9985 -0.0000 -0.0541
vn -0.9635 -0.0000 -0.2675
vn -0.8835 -0.0000 -0.4684
vn -0.7622 -0.0000 -0.6474
vn -0.6052 -0.0000 -0.7961
vn -0.4199 -0.0000 -0.9076
vn -0.2150 -0.0000 -0.9766
vn 0.2150 -0.0000 -0.9766
vn 0.4199 -0.0000 -0.9076
vn 0.6052 -0.0000 -0.7961
vn 0.7622 -0.0000 -0.6474
vn 0.8835 -0.0000 -0.4684
vn 0.9635 -0.0000 -0.2675
vn 0.9985 -0.0000 -0.0541
vn 0.9868 -0.0000 0.1618
vn 0.9290 -0.0000 0.3701
vn 0.8277 -0.0000 0.5612
vn 0.6877 -0.0000 0.7260
vn 0.5156 -0.0000 0.8569
vn 0.3193 -0.0000 0.9477
vn 0.1081 -0.0000 0.9941
vn -0.2264 -0.7050 0.6721
vn -0.2264 -0.7050 0.6720
vn -0.3656 -0.7050 0.6077
vn -0.4877 -0.7050 0.5149
vn -0.5870 -0.7050 0.3980
vn -0.6588 -0.7050 0.2625
vn -0.6998 -0.7050 0.1147
vn -0.7081 -0.7050 -0.0384
vn -0.7082 -0.7050 -0.0384
vn -0.6833 -0.7050 -0.1897
vn -0.6266 -0.7050 -0.3322
vn -0.5405 -0.7050 -0.4591
vn -0.4292 -0.7050 -0.5646
vn -0.2978 -0.7050 -0.6436
vn -0.1525 -0.7050 -0.6926
vn -0.0000 -0.7050 -0.7092
vn 0.1525 -0.7050 -0.6926
vn 0.2978 -0.7050 -0.6436
vn 0.4292 -0.7050 -0.5646
vn 0.5405 -0.7050 -0.4591
vn 0.6266 -0.7050 -0.3322
vn 0.6833 -0.7050 -0.1897
vn 0.7082 -0.7050 -0.0384
vn 0.7081 -0.7050 -0.0384
vn 0.6998 -0.7050 0.1147
vn 0.6588 -0.7050 0.2625
vn 0.5870 -0.7050 0.3980
vn 0.4877 -0.7050 0.5149
vn 0.3656 -0.7050 0.6077
vn 0.2264 -0.7050 0.6721
vn 0.0767 -0.7050 0.7050
vn -0.0767 -0.7050 0.7050
s 0
f 1//1 2//1 3//1
f 4//1 5//1 6//1
f 6//1 5//1 7//1
f 8//1 9//1 7//1
f 7//1 9//1 10//1
f 7//1 10//1 6//1
f 11//1 12//1 13//1
f 13//1 12//1 14//1
f 13//1 14//1 15//1
f 15//1 14//1 16//1
f 17//1 18//1 19//1
f 19//1 18//1 20//1
f 19//1 20//1 8//1
f 8//1 20//1 21//1
f 8//1 21//1 9//1
f 17//1 19//1 2//1
f 2//1 19//1 22//1
f 2//1 22//1 3//1
f 16//1 14//1 23//1
f 23//1 14//1 24//1
f 23//1 24//1 25//1
f 26//1 27//1 28//1
f 28//1 27//1 29//1
f 28//1 29//1 30//1
f 30//1 29//1 31//1
f 3//1 32//1 1//1
f 1//1 32//1 33//1
f 1//1 33//1 34//1
f 34//1 33//1 12//1
f 34//1 12//1 35//1
f 35//1 12//1 11//1
f 36//1 37//1 38//1
f 38//1 37//1 25//1
f 38//1 25//1 39//1
f 39//1 25//1 24//1
f 36//1 40//1 37//1
f 37//1 40//1 41//1
f 37//1 41//1 42//1
f 42//1 41//1 27//1
f 42//1 27//1 43//1
f 43//1 27//1 26//1
f 31//1 29//1 44//1
f 44//1 29//1 45//1
f 44//1 45//1 46//1
f 46//1 45//1 47//1
f 46//1 47//1 48//1
f 47//1 49//1 48//1
f 48//1 49//1 50//1
f 48//1 50//1 51//1
f 51//1 50//1 52//1
f 51//1 52//1 53//1
f 53//1 52//1 54//1
f 55//1 56//1 57//1
f 57//1 56//1 58//1
f 57//1 58//1 4//1
f 4//1 58//1 59//1
f 4//1 59//1 5//1
f 54//1 52//1 60//1
f 60//1 52//1 61//1
f 60//1 61//1 62//1
f 62//1 61//1 63//1
f 62//1 63//1 64//1
f 55//1 57//1 63//1
f 63//1 57//1 65//1
f 63//1 65//1 64//1
f 66//2 67//2 68//2
f 68//2 67//2 69//2
f 70//2 71//2 72//2
f 73//2 74//2 75//2
f 70//2 76//2 77//2
f 70//2 77//2 71//2
f 71//2 77//2 78//2
f 71//2 78//2 79//2
f 73//2 67//2 80//2
f 79//2 81//2 71//2
f 71//2 81//2 73//2
f 71//2 73//2 82//2
f 82//2 73//2 75//2
f 72//2 83//2 70//2
f 70//2 83//2 84//2
f 70//2 84//2 85//2
f 76//2 86//2 87//2
f 88//2 89//2 68//2
f 68//2 89//2 90//2
f 68//2 90//2 66//2
f 80//2 91//2 73//2
f 73//2 91//2 92//2
f 73//2 92//2 74//2
f 86//2 76//2 93//2
f 93//2 76//2 94//2
f 93//2 94//2 95//2
f 67//2 73//2 69//2
f 69//2 73//2 96//2
f 69//2 96//2 97//2
f 97//2 96//2 98//2
f 97//2 98//2 99//2
f 87//2 100//2 76//2
f 76//2 100//2 101//2
f 76//2 101//2 77//2
f 102//3 83//3 72//3
f 102//3 72//3 103//3
f 103//4 72//4 71//4
f 103//4 71//4 104//4
f 104//5 71//5 82//5
f 104//5 82//5 105//5
f 105//6 82//6 75//6
f 105//6 75//6 106//6
f 106//7 75//7 74//7
f 106//7 74//7 107//7
f 107//8 74//8 108//8
f 108//8 74//8 92//8
f 108//9 92//9 91//9
f 108//9 91//9 109//9
f 109//10 91//10 80//10
f 109//10 80//10 110//10
f 110//11 80//11 67//11
f 110//11 67//11 111//11
f 111//12 67//12 66//12
f 111//12 66//12 112//12
f 112//13 66//13 90//13
f 112//13 90//13 113//13
f 113//14 90//14 89//14
f 113//14 89//14 114//14
f 114//15 89//15 88//15
f 114//15 88//15 115//15
f 115//16 88//16 68//16
f 115//16 68//16 116//16
f 116//17 68//17 117//17
f 117//17 68//17 69//17
f 117//18 69//18 97//18
f 117//18 97//18 118//18
f 118//19 97//19 99//19
f 118//19 99//19 119//19
f 119//20 99//20 98//20
f 119//20 98//20 120//20
f 120//21 98//21 96//21
f 120//21 96//21 121//21
f 121//22 96//22 73//22
f 121//22 73//22 122//22
f 122//23 73//23 81//23
f 122//23 81//23 123//23
f 123//24 81//24 79//24
f 123//24 79//24 124//24
f 124//25 79//25 78//25
f 124//25 78//25 125//25
f 125//26 78//26 126//26
f 126//26 78//26 77//26
f 126//27 77//27 101//27
f 126//27 101//27 127//27
f 127//28 101//28 100//28
f 127//28 100//28 128//28
f 128//29 100//29 87//29
f 128//29 87//29 129//29
f 129//30 87//30 86//30
f 129//30 86//30 130//30
f 130//31 86//31 93//31
f 130//31 93//31 131//31
f 131//32 93//32 95//32
f 131//32 95//32 132//32
f 132//33 95//33 94//33
f 132//33 94//33 133//33
f 133//34 94//34 76//34
f 133//34 76//34 134//34
f 134//35 76//35 135//35
f 135//35 76//35 70//35
f 135//36 70//36 85//36
f 135//36 85//36 136//36
f 136//37 85//37 84//37
f 136//37 84//37 137//37
f 137//38 84//38 83//38
f 137//38 83//38 102//38
f 62//39 102//39 103//39
f 62//39 103//39 60//39
f 60//40 103//40 104//40
f 60//40 104//40 54//40
f 54//41 104//41 105//41
f 54//41 105//41 53//41
f 53//42 105//42 106//42
f 53//42 106//42 51//42
f 51//43 106//43 107//43
f 51//43 107//43 48//43
f 57//44 135//44 136//44
f 57//44 136//44 65//44
f 65//45 136//45 137//45
f 65//45 137//45 64//45
f 64//46 137//46 102//46
f 64//47 102//47 62//47
f 108//48 46//48 107//48
f 107//48 46//48 48//48
f 4//49 134//49 57//49
f 57//49 134//49 135//49
f 46//50 108//50 109//50
f 46//50 109//50 44//50
f 44//51 109//51 110//51
f 44//51 110//51 31//51
f 9//52 131//52 132//52
f 9//52 132//52 10//52
f 10//53 132//53 133//53
f 10//53 133//53 6//53
f 6//54 133//54 134//54
f 6//54 134//54 4//54
f 31//55 110//55 111//55
f 31//55 111//55 30//55
f 30//56 111//56 112//56
f 30//56 112//56 28//56
f 20//57 129//57 130//57
f 20//57 130//57 21//57
f 21//58 130//58 131//58
f 21//59 131//59 9//59
f 28//60 112//60 113//60
f 28//60 113//60 26//60
f 26//61 113//61 114//61
f 26//61 114//61 43//61
f 43//62 114//62 115//62
f 43//62 115//62 42//62
f 42//63 115//63 116//63
f 42//64 116//64 37//64
f 2//65 126//65 127//65
f 2//65 127//65 17//65
f 17//66 127//66 128//66
f 17//66 128//66 18//66
f 18//67 128//67 129//67
f 18//67 129//67 20//67
f 37//68 116//68 25//68
f 25//68 116//68 117//68
f 1//69 125//69 2//69
f 2//69 125//69 126//69
f 25//70 117//70 118//70
f 25//70 118//70 23//70
f 23//71 118//71 119//71
f 23//71 119//71 16//71
f 16//72 119//72 120//72
f 16//72 120//72 15//72
f 15//73 120//73 121//73
f 15//73 121//73 13//73
f 35//74 123//74 124//74
f 35//74 124//74 34//74
f 34//75 124//75 125//75
f 34//75 125//75 1//75
f 13//76 121//76 122//76
f 13//76 122//76 11//76
f 11//77 122//77 123//77
f 11//77 123//77 35//77
f 138//1 139//1 140//1
f 138//1 140//1 141//1
f 142//1 143//1 140//1
f 140//1 143//1 144//1
f 140//1 144//1 141//1
f 145//1 146//1 140//1
f 140//1 146//1 147//1
f 140//1 147//1 142//1
f 148//1 149//1 140//1
f 140//1 149//1 150//1
f 140//1 150//1 145//1
f 151//1 152//1 140//1
f 140//1 152//1 153//1
f 140//1 153//1 148//1
f 154//1 155//1 140//1
f 140//1 155//1 156//1
f 140//1 156//1 151//1
f 157//1 158//1 140//1
f 140//1 158//1 159//1
f 140//1 159//1 154//1
f 160//1 161//1 140//1
f 140//1 161//1 162//1
f 140//1 162//1 157//1
f 163//1 164//1 140//1
f 140//1 164//1 165//1
f 140//1 165//1 160//1
f 139//1 166//1 140//1
f 140//1 166//1 167//1
f 140//1 167//1 163//1
f 138//78 168//78 139//78
f 139//78 168//78 169//78
f 139//79 169//79 166//79
f 166//79 169//79 170//79
f 166//80 170//80 167//80
f 167//80 170//80 171//80
f 167//81 171//81 163//81
f 163//81 171//81 172//81
f 163//82 172//82 164//82
f 164//82 172//82 173//82
f 164//83 173//83 165//83
f 165//83 173//83 174//83
f 165//84 174//84 160//84
f 160//84 174//84 175//84
f 160//85 175//85 161//85
f 161//85 175//85 176//85
f 161//86 176//86 162//86
f 162//86 176//86 177//86
f 162//87 177//87 157//87
f 157//87 177//87 178//87
f 157//88 178//88 158//88
f 158//88 178//88 179//88
f 158//89 179//89 159//89
f 159//89 179//89 180//89
f 159//90 180//90 154//90
f 154//90 180//90 181//90
f 154//91 181//91 155//91
f 155//91 181//91 182//91
f 155//35 182//35 156//35
f 156//35 182//35 183//35
f 156//92 183//92 151//92
f 151//92 183//92 184//92
f 151//93 184//93 152//93
f 152//93 184//93 185//93
f 152//94 185//94 153//94
f 153//94 185//94 186//94
f 153//95 186//95 148//95
f 148//95 186//95 187//95
f 148//96 187//96 149//96
f 149//96 187//96 188//96
f 149//97 188//97 150//97
f 150//97 188//97 189//97
f 150//98 189//98 145//98
f 145//98 189//98 190//98
f 145//99 190//99 146//99
f 146//99 190//99 191//99
f 146//100 191//100 147//100
f 147//100 191//100 192//100
f 147//101 192//101 142//101
f 142//101 192//101 193//101
f 142//102 193//102 143//102
f 143//102 193//102 194//102
f 143//103 194//103 144//103
f 144//103 194//103 195//103
f 144//104 195//104 141//104
f 141//104 195//104 196//104
f 141//105 196//105 138//105
f 138//105 196//105 168//105
f 169//106 56//106 170//106
f 170//107 56//107 55//107
f 170//108 55//108 171//108
f 171//108 55//108 63//108
f 171//109 63//109 172//109
f 172//109 63//109 61//109
f 172//110 61//110 173//110
f 173//110 61//110 52//110
f 173//111 52//111 174//111
f 174//111 52//111 50//111
f 174//112 50//112 175//112
f 175//112 50//112 49//112
f 175//113 49//113 176//113
f 176//114 49//114 47//114
f 176//115 47//115 177//115
f 177//115 47//115 45//115
f 177//116 45//116 178//116
f 178//116 45//116 29//116
f 178//117 29//117 179//117
f 179//117 29//117 27//117
f 179//118 27//118 180//118
f 180//118 27//118 41//118
f 180//119 41//119 181//119
f 181//119 41//119 40//119
f 181//120 40//120 182//120
f 182//120 40//120 36//120
f 182//121 36//121 183//121
f 183//121 36//121 38//121
f 183//122 38//122 184//122
f 184//122 38//122 39//122
f 184//123 39//123 185//123
f 185//123 39//123 24//123
f 185//124 24//124 186//124
f 186//124 24//124 14//124
f 186//125 14//125 187//125
f 187//125 14//125 12//125
f 187//126 12//126 188//126
f 188//126 12//126 33//126
f 188//127 33//127 189//127
f 189//127 33//127 32//127
f 189//128 32//128 190//128
f 190//129 32//129 3//129
f 190//130 3//130 191//130
f 191//130 3//130 22//130
f 191//131 22//131 192//131
f 192//131 22//131 19//131
f 192//132 19//132 193//132
f 193//132 19//132 8//132
f 193//133 8//133 194//133
f 194//133 8//133 7//133
f 194//134 7//134 195//134
f 195//134 7//134 5//134
f 195//135 5//135 196//135
f 196//135 5//135 59//135
f 196//136 59//136 197//136
f 197//136 59//136 58//136
f 197//137 58//137 169//137
f 169//137 58//137 56//137
