# Blender 4.4.3
# www.blender.org
mtllib th_proximal_E4.mtl
o th_proximal
v 6.562990 -47.242680 -2.382766
v 5.352630 -47.242607 -4.479267
v 8.872470 -44.399899 -3.223366
v 6.609160 -47.535778 0.001134
v 2.846790 -49.092270 -2.376566
v 2.542210 -49.166180 1.397904
v 10.147950 -40.895760 -3.687667
v 10.661380 -37.154110 2.264483
v 10.657370 -41.136059 -0.005537
v 12.342159 -3.915270 2.621740
v 11.527860 -3.915269 5.127820
v 11.016339 -12.128600 0.001131
v 9.958090 -37.154110 4.428923
v 10.153959 -28.836269 0.001132
v 8.875569 -12.121889 6.440061
v 10.192280 -20.462149 0.001132
v 8.195270 -20.458750 5.945821
v 8.177800 -28.837889 5.933082
v 8.447140 -3.915279 9.368060
v 6.452030 -12.121879 8.863551
v 5.957840 -20.458740 8.183302
v 5.945050 -28.837900 8.165762
v 7.297320 -37.154179 8.091103
v 6.315350 -3.915279 10.916900
v 3.398320 -12.121889 10.419531
v 3.908080 -3.915269 11.988669
v 3.138460 -20.458750 9.619852
v 3.131750 -28.837889 9.599232
v 3.377120 -37.154167 10.354452
v 1.330670 -3.915279 12.536530
v -3.372080 -12.121889 10.419531
v -3.112220 -20.458750 9.619852
v -3.105500 -28.837889 9.599232
v -1.304430 -3.915279 12.536530
v -1.124750 -37.154179 10.827622
v -3.881840 -3.915269 11.988669
v -6.289110 -3.915279 10.916900
v -6.425790 -12.121889 8.863551
v -5.931600 -20.458750 8.183302
v -5.918800 -28.837889 8.165762
v -7.271060 -37.154179 8.091103
v -8.420899 -3.915279 9.368060
v -11.501619 -3.915279 5.127820
v -8.849330 -12.121889 6.440061
v -8.169020 -20.458750 5.945821
v -8.151560 -28.837889 5.933082
v -9.931840 -37.154110 4.428923
v -10.990100 -12.128600 0.001131
v -10.166030 -20.462139 0.001132
v -10.127709 -28.836269 0.001132
v -12.591340 -3.915350 0.001130
v -10.635139 -37.154110 2.264483
v 3.498250 -47.242680 -6.035266
v 7.235230 -44.399899 -6.058967
v 9.679700 -44.256390 -0.008857
v 12.917130 0.143840 1.094790
v 9.762569 7.261750 3.168919
v 8.306490 7.261750 6.026619
v 4.715470 9.958290 5.683279
v 6.038590 7.261680 8.294498
v 4.727060 -44.399830 -8.163666
v 8.275100 -40.895760 -6.931467
v 7.167060 3.834831 9.847770
v 7.642450 -0.009079 10.502040
v 3.180890 7.261681 9.750568
v 3.774220 3.834831 11.576550
v 4.024110 -0.009139 12.345690
v -2.272180 9.958721 7.034459
v -3.113070 11.679540 2.272449
v -3.154720 7.261751 9.750568
v 0.013120 3.834831 12.172250
v 0.013120 -0.009139 12.980969
v -3.747980 3.834821 11.576550
v -3.997870 -0.009149 12.345690
v -5.641700 9.956840 4.785559
v -6.012420 7.261750 8.294498
v -7.140890 3.834901 9.847770
v -7.616210 -0.009079 10.502040
v -8.280250 7.261750 6.026619
v -9.833489 3.834820 7.155129
v -10.487770 -0.009079 7.630490
v -6.828840 9.958099 2.313769
v -9.736330 7.261750 3.168919
v -11.562360 3.834820 3.762210
v -12.331480 -0.009080 4.012120
v -12.085489 3.513460 0.036930
v -12.759299 0.007480 -0.068200
v 8.275100 -40.895760 6.933763
v 7.235240 -44.399899 6.061253
v 5.352630 -47.242607 4.481493
v 5.405810 -40.895760 9.341443
v 4.727060 -44.399830 8.165914
v 3.498240 -47.242680 6.037503
v 1.885970 -40.895760 10.622542
v 1.650220 -44.399899 9.285773
v -1.859710 -40.895760 10.622542
v -1.623970 -44.399899 9.285773
v -1.197230 -47.242687 6.865443
v -2.820540 -49.092270 2.378844
v -5.379550 -40.895767 9.341443
v -4.700880 -44.399899 8.165914
v -8.248850 -40.895767 6.933763
v -7.208980 -44.399910 6.061253
v -5.326380 -47.242619 4.481493
v -10.610570 -40.893169 1.655433
v -9.637320 -44.529919 1.118843
v -6.582910 -47.535789 0.001134
v 9.958090 -37.154110 -4.426667
v 10.661380 -37.154110 -2.262267
v -12.315920 -3.915280 -2.619470
v -10.405250 -12.121890 -3.383969
v -9.605579 -20.458750 -3.124168
v -9.585000 -28.837889 -3.117468
v -10.635139 -37.154110 -2.262267
v -11.501619 -3.915280 -5.125569
v -9.931840 -37.154110 -4.426667
v -8.849330 -12.121891 -6.437769
v -8.169020 -20.458750 -5.943568
v -8.151560 -28.837889 -5.930868
v -8.420899 -3.915281 -9.365769
v -6.425790 -12.121891 -8.861269
v -5.931600 -20.458750 -8.181067
v -5.918800 -28.837889 -8.163468
v -7.271060 -37.154179 -8.088867
v -6.289110 -3.915281 -10.914670
v -3.372080 -12.121891 -10.417269
v -3.881840 -3.915281 -11.986370
v -3.112220 -20.458750 -9.617568
v -3.105500 -28.837889 -9.596968
v -3.350860 -37.154167 -10.352167
v -1.304430 -3.915281 -12.534269
v 1.330670 -3.915281 -12.534269
v 1.151000 -37.154179 -10.825367
v 3.398320 -12.121891 -10.417269
v 3.908080 -3.915281 -11.986370
v 3.138460 -20.458750 -9.617568
v 3.131750 -28.837889 -9.596968
v 6.315350 -3.915281 -10.914670
v 6.452030 -12.121881 -8.861269
v 5.957840 -20.458740 -8.181067
v 5.945050 -28.837900 -8.163468
v 7.297320 -37.154179 -8.088867
v 8.447140 -3.915281 -9.365769
v 11.527860 -3.915270 -5.125569
v 8.875569 -12.121891 -6.437769
v 8.195270 -20.458750 -5.943568
v 8.177800 -28.837889 -5.930868
v 10.431490 -12.121880 -3.383969
v 9.631830 -20.458750 -3.124168
v 9.611250 -28.837900 -3.117468
v 12.342159 -3.915270 -2.619470
v -3.661930 11.679540 -1.192971
v -6.965720 9.956520 -1.299691
v -9.736330 7.261739 -3.166670
v -11.642710 3.895890 -3.811340
v -12.331480 -0.009080 -4.009870
v -5.969780 9.958720 -4.345671
v -8.280250 7.261749 -6.024370
v -9.833489 3.834819 -7.152870
v -10.487770 -0.009081 -7.628270
v -6.012420 7.261749 -8.292271
v -7.140890 3.834899 -9.845469
v -7.616210 -0.009081 -10.499770
v 0.013120 9.958649 -7.394171
v 0.013120 7.261749 -10.250071
v -3.747980 3.834819 -11.574269
v -3.997870 -0.009151 -12.343470
v 0.013120 3.834829 -12.169970
v 0.013120 -0.009151 -12.978670
v 3.139310 11.679540 -2.270171
v 2.298420 9.958729 -7.032171
v 3.180890 7.261679 -9.748271
v 3.774220 3.834829 -11.574269
v 4.024110 -0.009151 -12.343470
v 5.996020 9.958730 -4.345671
v 6.038590 7.261679 -8.292271
v 7.167060 3.834829 -9.845469
v 7.642450 -0.009081 -10.499770
v 8.306490 7.261749 -6.024370
v 9.859719 3.834829 -7.152870
v 10.514009 -0.009071 -7.628270
v 7.046500 9.958720 -2.284171
v 9.762569 7.261749 -3.166670
v 11.588600 3.834830 -3.759970
v 12.357719 -0.009070 -4.009870
v -10.121699 -40.895767 -3.687667
v -8.846220 -44.399910 -3.223366
v -6.536740 -47.242687 -2.382766
v -3.462870 -49.092270 -1.264016
v -8.248850 -40.895767 -6.931467
v -7.208980 -44.399910 -6.058967
v -5.326380 -47.242619 -4.479267
v -5.379550 -40.895767 -9.339167
v -4.700880 -44.399910 -8.163666
v -3.471990 -47.242687 -6.035266
v -1.859710 -40.895760 -10.620267
v -1.623970 -44.399910 -9.283466
v 1.885970 -40.895760 -10.620267
v 1.650220 -44.399899 -9.283466
v 5.405810 -40.895760 -9.339167
v -3.199070 9.783739 -6.568491
v -3.783350 7.685139 -9.397951
v 9.975860 3.987940 6.396289
v 10.945740 0.287480 6.098010
v 11.566649 3.961560 1.440500
v 1.441900 9.955091 7.540369
v 7.229860 9.952640 1.884769
vn 0.6594 -0.6483 -0.3807
vn 0.4423 -0.8891 -0.1179
vn 0.3757 -0.9267 0.0122
vn 0.9222 -0.2445 0.2996
vn 0.9416 0.1407 0.3060
vn 0.9447 -0.0934 0.3142
vn 0.9192 -0.2482 0.3059
vn 0.9479 -0.0043 0.3184
vn 0.9436 -0.0958 0.3170
vn 0.9388 0.1444 0.3128
vn 0.9487 -0.0025 0.3161
vn 0.7979 -0.1652 0.5797
vn 0.6912 -0.2105 0.6913
vn 0.7036 -0.0991 0.7036
vn 0.7071 -0.0025 0.7071
vn 0.7071 -0.0026 0.7071
vn 0.8026 0.1253 0.5832
vn 0.7069 0.0235 0.7069
vn 0.5772 -0.1892 0.7944
vn 0.4518 -0.0991 0.8866
vn 0.3971 -0.2165 0.8919
vn 0.4453 -0.1948 0.8739
vn 0.4540 -0.0026 0.8910
vn 0.4530 0.0657 0.8891
vn 0.4978 0.0930 0.8623
vn 0.2039 -0.1961 0.9592
vn -0.0000 -0.2498 0.9683
vn -0.0000 -0.0955 0.9954
vn -0.0000 -0.0025 1.0000
vn -0.0000 0.0904 0.9959
vn 0.1030 0.1693 0.9802
vn -0.2039 -0.1961 0.9592
vn -0.3988 -0.1961 0.8958
vn -0.4518 -0.0991 0.8866
vn -0.4438 -0.2105 0.8710
vn -0.4540 -0.0026 0.8910
vn -0.4061 0.0578 0.9120
vn -0.4539 0.0235 0.8908
vn -0.5772 -0.1892 0.7944
vn -0.7879 -0.2268 0.5725
vn -0.7024 -0.1147 0.7024
vn -0.7036 -0.0991 0.7036
vn -0.7071 -0.0026 0.7071
vn -0.7030 0.1080 0.7030
vn -0.7071 -0.0025 0.7071
vn -0.8072 0.0667 0.5865
vn -0.9192 -0.2482 0.3059
vn -0.9445 -0.0957 0.3141
vn -0.9438 -0.0933 0.3171
vn -0.9479 -0.0025 0.3184
vn -0.9388 0.1444 0.3128
vn -0.9487 -0.0043 0.3161
vn -0.9608 -0.1873 0.2042
vn -0.9416 0.1407 0.3060
vn 0.4894 -0.6483 -0.5833
vn 0.4312 -0.8672 -0.2490
vn 0.7263 -0.6804 -0.0977
vn 0.9223 -0.3557 -0.1508
vn 0.9509 -0.0185 0.3090
vn 0.5581 0.7795 0.2844
vn 0.4921 0.7180 0.4922
vn 0.6006 -0.3564 -0.7157
vn 0.8090 -0.0040 0.5878
vn 0.5840 -0.1130 0.8038
vn 0.3972 0.4842 0.7796
vn 0.3076 0.7355 0.6037
vn 0.4445 0.2035 0.8724
vn 0.4445 0.2034 0.8724
vn 0.4532 -0.0595 0.8894
vn 0.4049 -0.0951 0.9094
vn -0.0000 0.4703 0.8825
vn -0.0000 0.7096 0.7046
vn 0.1532 0.2035 0.9670
vn 0.1196 0.6443 0.7553
vn 0.2077 -0.0411 0.9773
vn 0.1557 -0.0945 0.9833
vn 0.1532 0.2034 0.9670
vn -0.0000 -0.1131 0.9936
vn -0.1369 0.4842 0.8642
vn -0.1532 0.2035 0.9670
vn -0.1562 -0.0595 0.9859
vn -0.2070 -0.0951 0.9737
vn -0.2458 0.8969 0.3675
vn -0.3891 0.7138 0.5823
vn -0.2874 0.7740 0.5641
vn -0.3972 0.4842 0.7796
vn -0.4445 0.2034 0.8724
vn -0.4064 -0.0411 0.9128
vn -0.4520 -0.0945 0.8870
vn -0.5840 -0.1130 0.8038
vn -0.6187 0.4842 0.6187
vn -0.4956 0.7133 0.4955
vn -0.6923 0.2034 0.6923
vn -0.6923 0.2035 0.6923
vn -0.7059 -0.0595 0.7059
vn -0.7980 -0.1643 0.5798
vn -0.6117 0.7343 0.2942
vn -0.4103 0.8903 0.1975
vn -0.5979 0.7414 0.3047
vn -0.7796 0.4842 0.3972
vn -0.8724 0.2035 0.4445
vn -0.8894 -0.0595 0.4532
vn -0.8724 0.2034 0.4445
vn -0.9675 -0.1468 0.2057
vn -0.8737 0.4796 0.0813
vn -0.9721 0.2022 0.1191
vn -0.9937 -0.0407 0.1040
vn -0.9774 0.1847 0.1032
vn 0.9308 -0.2914 -0.2207
vn 0.9365 -0.1744 0.3043
vn 0.9248 -0.1988 0.3244
vn 0.9039 -0.2836 0.3201
vn 0.7037 -0.6581 0.2678
vn 0.8735 -0.3448 0.3436
vn 0.4177 -0.8915 0.1755
vn 0.7385 -0.6270 0.2481
vn 0.8087 0.0296 0.5875
vn 0.6006 -0.3564 0.7157
vn 0.6413 -0.0688 0.7642
vn 0.4894 -0.6483 0.5833
vn 0.2693 -0.9080 0.3209
vn 0.4997 0.0366 0.8654
vn 0.3412 -0.0688 0.9375
vn 0.3196 -0.3564 0.8780
vn 0.2604 -0.6483 0.7155
vn -0.0000 -0.3564 0.9343
vn 0.1045 0.0296 0.9941
vn -0.0000 -0.0547 0.9985
vn -0.0000 -0.7525 0.6586
vn 0.1348 -0.6305 0.7644
vn 0.0654 -0.9265 0.3706
vn 0.0537 -0.9299 0.3639
vn -0.3196 -0.3564 0.8780
vn -0.4066 0.0298 0.9131
vn -0.3387 0.1397 0.9305
vn -0.2604 -0.6483 0.7155
vn -0.3195 -0.3564 0.8780
vn -0.6006 -0.3564 0.7157
vn -0.6413 -0.0688 0.7642
vn -0.4233 -0.7525 0.5045
vn -0.3881 -0.6305 0.6722
vn -0.2578 -0.8568 0.4465
vn -0.8087 0.0296 0.5875
vn -0.9043 -0.1359 0.4046
vn -0.8554 -0.3491 0.3826
vn -0.6792 -0.6447 0.3507
vn -0.8553 -0.2920 0.4279
vn -0.6395 -0.7344 0.2274
vn -0.4752 -0.8592 0.1895
vn -0.9495 -0.0565 0.3085
vn 0.7431 -0.6503 -0.1576
vn 0.9510 -0.0128 -0.3090
vn -0.9763 -0.1903 -0.1026
vn -0.9807 -0.0970 -0.1696
vn -0.9636 -0.2088 -0.1669
vn -0.9794 -0.0994 -0.1757
vn -0.9843 -0.0045 -0.1765
vn -0.9852 -0.0026 -0.1714
vn -0.9921 0.1253 -0.0000
vn -0.9851 0.0134 -0.1714
vn 0.8091 -0.3564 -0.4672
vn -0.9339 -0.1892 -0.3034
vn -0.9474 0.0880 -0.3078
vn -0.8866 -0.0991 -0.4517
vn -0.8710 -0.2105 -0.4438
vn -0.8910 -0.0026 -0.4540
vn -0.8866 -0.0991 -0.4518
vn -0.8858 0.1080 -0.4513
vn -0.8910 -0.0025 -0.4540
vn -0.7979 -0.1652 -0.5797
vn -0.6913 -0.2105 -0.6913
vn -0.7036 -0.0991 -0.7036
vn -0.7071 -0.0025 -0.7071
vn -0.7071 -0.0026 -0.7071
vn -0.8026 0.1253 -0.5832
vn -0.7069 0.0235 -0.7069
vn -0.5772 -0.1892 -0.7944
vn -0.4518 -0.0991 -0.8866
vn -0.3971 -0.2165 -0.8919
vn -0.4453 -0.1948 -0.8739
vn -0.4517 -0.0991 -0.8866
vn -0.4540 -0.0026 -0.8910
vn -0.4530 0.0657 -0.8891
vn -0.4978 0.0930 -0.8623
vn -0.2039 -0.1961 -0.9592
vn -0.0000 -0.2498 -0.9683
vn -0.1041 0.0930 -0.9902
vn -0.0000 -0.0955 -0.9954
vn -0.0000 -0.0025 -1.0000
vn -0.0000 0.1461 -0.9893
vn 0.3988 -0.1961 -0.8958
vn 0.4438 -0.2106 -0.8710
vn 0.4518 -0.0991 -0.8866
vn 0.4540 -0.0026 -0.8910
vn 0.4517 -0.0991 -0.8866
vn 0.4061 0.0578 -0.9120
vn 0.4539 0.0235 -0.8908
vn 0.5772 -0.1892 -0.7944
vn 0.7879 -0.2268 -0.5725
vn 0.7024 -0.1147 -0.7024
vn 0.7036 -0.0991 -0.7036
vn 0.7071 -0.0026 -0.7071
vn 0.7029 0.1080 -0.7030
vn 0.7071 -0.0025 -0.7071
vn 0.8072 0.0667 -0.5865
vn 0.8866 -0.0991 -0.4517
vn 0.8710 -0.2105 -0.4438
vn 0.8910 -0.0025 -0.4540
vn 0.8866 -0.0991 -0.4518
vn 0.8858 0.1080 -0.4513
vn 0.8910 -0.0026 -0.4540
vn 0.9339 -0.1892 -0.3034
vn 0.9474 0.0880 -0.3078
vn 0.9740 -0.2268 -0.0000
vn 0.9800 -0.1041 -0.1695
vn 0.8647 -0.0547 -0.4993
vn 0.9805 -0.0993 -0.1696
vn 0.9843 -0.0026 -0.1765
vn 0.9797 -0.0969 -0.1758
vn 0.9796 0.1062 -0.1705
vn 0.9852 -0.0045 -0.1714
vn 0.9981 0.0609 -0.0000
vn -0.4188 0.9056 0.0663
vn -0.4628 0.8863 0.0171
vn -0.6758 0.7367 0.0253
vn -0.8473 0.5311 -0.0000
vn -0.6972 0.7168 -0.0000
vn -0.8649 0.4994 -0.0499
vn -0.9772 0.1906 -0.0935
vn -0.9937 -0.0411 -0.1044
vn -0.9932 -0.0444 -0.1076
vn -0.9782 0.1780 -0.1069
vn -0.9450 -0.1131 -0.3070
vn -0.4536 0.8789 -0.1477
vn -0.6110 0.7662 -0.1992
vn -0.7669 0.5092 -0.3907
vn -0.6157 0.7228 -0.3137
vn -0.8642 0.1764 -0.4712
vn -0.7648 0.4859 -0.4230
vn -0.8724 0.2035 -0.4445
vn -0.8894 -0.0595 -0.4532
vn -0.6187 0.4842 -0.6187
vn -0.4887 0.7228 -0.4887
vn -0.6923 0.2035 -0.6923
vn -0.6923 0.2034 -0.6923
vn -0.5840 -0.1130 -0.8038
vn -0.4445 0.2035 -0.8724
vn -0.4532 -0.0595 -0.8894
vn -0.4049 -0.0952 -0.9094
vn -0.1532 0.2035 -0.9670
vn -0.1369 0.4842 -0.8642
vn -0.1531 0.2034 -0.9670
vn -0.2078 -0.0411 -0.9773
vn -0.1557 -0.0945 -0.9833
vn -0.0000 -0.1130 -0.9936
vn -0.0463 0.9551 -0.2925
vn -0.0000 1.0000 -0.0000
vn 0.0551 0.9359 -0.3479
vn 0.1081 0.7228 -0.6826
vn 0.1369 0.4842 -0.8642
vn 0.1532 0.2034 -0.9670
vn 0.1531 0.2035 -0.9670
vn 0.1561 -0.0595 -0.9859
vn 0.2070 -0.0952 -0.9737
vn 0.2680 0.8900 -0.3689
vn 0.4142 0.7096 -0.5700
vn 0.3972 0.4842 -0.7796
vn 0.2753 0.7951 -0.5404
vn 0.4445 0.2035 -0.8724
vn 0.4064 -0.0411 -0.9128
vn 0.4520 -0.0945 -0.8870
vn 0.5840 -0.1130 -0.8038
vn 0.4886 0.7228 -0.4887
vn 0.6187 0.4842 -0.6187
vn 0.6923 0.2035 -0.6923
vn 0.7058 -0.0595 -0.7059
vn 0.7980 -0.1644 -0.5798
vn 0.3942 0.8968 -0.2009
vn 0.6157 0.7228 -0.3138
vn 0.7796 0.4842 -0.3972
vn 0.6158 0.7228 -0.3137
vn 0.8724 0.2035 -0.4445
vn 0.8894 -0.0595 -0.4532
vn 0.8724 0.2034 -0.4445
vn 0.9450 -0.1131 -0.3070
vn 0.1338 0.9737 0.1842
vn 0.8825 0.4703 -0.0000
vn 0.9729 0.2020 -0.1127
vn 0.9933 -0.0423 -0.1076
vn 0.9901 -0.1402 -0.0000
vn -1.0000 -0.0066 -0.0000
vn -0.9654 -0.2453 -0.0882
vn -0.9907 -0.1014 -0.0906
vn 0.3201 -0.8672 -0.3814
vn -0.7209 -0.6762 -0.1516
vn -0.9169 -0.3573 -0.1778
vn -0.7589 -0.6443 -0.0939
vn 0.8087 0.0296 -0.5875
vn -0.5384 -0.8373 0.0949
vn -0.9510 -0.0128 -0.3090
vn -0.8647 -0.0547 -0.4993
vn -0.8091 -0.3564 -0.4672
vn -0.6594 -0.6483 -0.3807
vn -0.4312 -0.8672 -0.2490
vn -0.8087 0.0296 -0.5875
vn -0.6413 -0.0688 -0.7642
vn -0.6006 -0.3564 -0.7157
vn -0.4895 -0.6483 -0.5833
vn -0.2899 -0.8925 -0.3454
vn -0.4894 -0.6483 -0.5833
vn -0.4997 0.0366 -0.8654
vn -0.3196 -0.3564 -0.8780
vn -0.3412 -0.0688 -0.9375
vn -0.2604 -0.6483 -0.7155
vn -0.3195 -0.3564 -0.8780
vn -0.1045 0.0296 -0.9941
vn -0.0000 -0.0547 -0.9985
vn -0.0000 -0.3564 -0.9343
vn -0.0000 -0.7525 -0.6586
vn -0.0000 -0.9324 -0.3614
vn -0.0813 -0.8836 -0.4612
vn -0.0000 -1.0000 -0.0000
vn 0.3196 -0.3564 -0.8780
vn 0.3195 -0.3564 -0.8780
vn 0.2604 -0.6483 -0.7155
vn 0.6413 -0.0688 -0.7642
vn 1.0000 -0.0010 -0.0000
vn 0.9865 -0.0814 -0.1418
vn 0.3420 0.0157 -0.9396
vn 0.4047 0.0992 -0.9090
vn -0.7058 -0.0595 -0.7059
vn -0.7980 -0.1644 -0.5798
vn -0.3698 0.7690 -0.5215
vn -0.1380 0.9303 -0.3400
vn -0.2160 0.9148 -0.3412
vn -0.1394 0.4863 -0.8626
vn -0.0728 0.7251 -0.6848
vn -0.4061 0.4468 -0.7971
vn -0.4605 0.4878 -0.7416
vn -0.1878 0.8071 -0.5598
vn -0.3925 0.7757 -0.4943
vn 0.6708 0.4779 0.5671
vn 0.9299 0.0445 0.3651
vn 0.8006 -0.0273 0.5986
vn 0.7849 0.1574 0.5993
vn 0.7557 0.1996 0.6238
vn 0.8756 0.4829 -0.0081
vn 0.9426 0.3338 -0.0042
vn 0.8959 0.3401 0.2858
vn 0.7951 0.4512 0.4052
vn 0.6471 0.4030 0.6471
vn 0.9116 0.2105 0.3531
vn 0.9101 0.2956 0.2905
vn 0.3428 0.7182 0.6055
vn -0.1086 0.5877 0.8017
vn -0.0463 0.9368 0.3467
vn 0.1202 0.9695 0.2135
vn 0.2425 0.9570 0.1591
vn 0.4030 0.9151 -0.0164
vn 0.6994 0.7141 -0.0297
vn 0.7282 0.6854 -0.0000
vn 0.5760 0.7236 0.3802
vn 0.2039 -0.1961 -0.9592
vn -0.0176 -0.9996 -0.0210
vn -0.3127 -0.9420 -0.1219
s 0
usemtl black_spec.020
f 1//1 2//1 3//1
f 1//2 4//2 5//2
f 6//3 5//3 4//3
f 10//4 11//4 12//4
f 13//5 8//5 14//5
f 12//6 15//6 16//6
f 15//7 12//7 11//7
f 16//8 17//8 14//8
f 17//9 16//9 15//9
f 14//10 18//10 13//10
f 18//11 14//11 17//11
f 11//12 19//12 15//12
f 20//13 15//13 19//13
f 15//14 20//14 17//14
f 21//14 17//14 20//14
f 17//15 21//15 18//15
f 22//16 18//16 21//16
f 22//17 23//17 13//17
f 18//18 22//18 13//18
f 19//19 24//19 20//19
f 20//20 25//20 21//20
f 20//21 24//21 26//21
f 25//22 20//22 26//22
f 21//23 27//23 22//23
f 27//20 21//20 25//20
f 22//24 28//24 23//24
f 28//23 22//23 27//23
f 29//25 23//25 28//25
f 26//26 30//26 25//26
f 31//27 25//27 30//27
f 25//28 31//28 27//28
f 27//29 32//29 28//29
f 32//28 27//28 31//28
f 28//30 33//30 29//30
f 33//29 28//29 32//29
f 30//27 34//27 31//27
f 35//31 29//31 33//31
f 31//32 34//32 36//32
f 36//33 37//33 31//33
f 31//34 38//34 32//34
f 38//35 31//35 37//35
f 39//34 32//34 38//34
f 32//36 39//36 33//36
f 40//36 33//36 39//36
f 40//37 41//37 35//37
f 33//38 40//38 35//38
f 37//39 42//39 38//39
f 38//40 42//40 43//40
f 44//41 38//41 43//41
f 38//42 44//42 39//42
f 45//42 39//42 44//42
f 39//43 45//43 40//43
f 40//44 46//44 41//44
f 46//45 40//45 45//45
f 47//46 41//46 46//46
f 48//47 44//47 43//47
f 44//48 48//48 45//48
f 49//49 45//49 48//49
f 45//50 49//50 46//50
f 46//51 50//51 47//51
f 50//52 46//52 49//52
f 43//53 51//53 48//53
f 52//54 47//54 50//54
f 2//55 53//55 54//55
f 2//56 1//56 5//56
f 4//57 1//57 55//57
f 7//58 9//58 3//58
f 11//59 10//59 56//59
f 58//60 57//60 59//60
f 60//61 58//61 59//61
f 54//62 61//62 62//62
f 64//63 19//63 11//63
f 24//64 19//64 64//64
f 60//65 65//65 63//65
f 65//66 60//66 59//66
f 66//65 63//65 65//65
f 63//67 66//67 64//67
f 67//68 64//68 66//68
f 64//69 67//69 24//69
f 26//70 24//70 67//70
f 65//71 70//71 66//71
f 70//72 65//72 68//72
f 66//73 71//73 67//73
f 71//74 66//74 70//74
f 72//75 30//75 26//75
f 67//76 72//76 26//76
f 72//77 67//77 71//77
f 34//78 30//78 72//78
f 73//79 71//79 70//79
f 71//80 73//80 72//80
f 72//81 74//81 34//81
f 74//80 72//80 73//80
f 36//82 34//82 74//82
f 75//83 68//83 69//83
f 68//84 75//84 70//84
f 76//85 70//85 75//85
f 70//86 76//86 73//86
f 73//87 77//87 74//87
f 77//86 73//86 76//86
f 78//87 74//87 77//87
f 78//88 37//88 36//88
f 74//89 78//89 36//89
f 42//90 37//90 78//90
f 76//91 79//91 77//91
f 79//92 76//92 75//92
f 80//91 77//91 79//91
f 77//93 80//93 78//93
f 81//94 78//94 80//94
f 78//95 81//95 42//95
f 43//96 42//96 81//96
f 75//97 82//97 79//97
f 82//98 75//98 69//98
f 83//99 79//99 82//99
f 79//100 83//100 80//100
f 84//100 80//100 83//100
f 80//101 84//101 81//101
f 81//102 85//102 43//102
f 85//103 81//103 84//103
f 51//104 43//104 85//104
f 86//105 84//105 83//105
f 84//106 86//106 85//106
f 85//107 87//107 51//107
f 87//108 85//108 86//108
f 3//109 9//109 55//109
f 8//110 13//110 9//110
f 88//111 9//111 13//111
f 9//112 88//112 55//112
f 55//113 89//113 4//113
f 89//114 55//114 88//114
f 4//115 90//115 6//115
f 90//116 4//116 89//116
f 13//117 23//117 88//117
f 88//118 91//118 89//118
f 91//119 88//119 23//119
f 89//120 92//120 90//120
f 92//118 89//118 91//118
f 90//121 93//121 6//121
f 93//120 90//120 92//120
f 23//122 29//122 91//122
f 94//123 91//123 29//123
f 91//124 94//124 92//124
f 92//125 95//125 93//125
f 95//124 92//124 94//124
f 94//126 96//126 95//126
f 94//127 29//127 35//127
f 96//128 94//128 35//128
f 95//129 97//129 93//129
f 97//126 95//126 96//126
f 98//130 93//130 97//130
f 93//131 98//131 6//131
f 99//132 6//132 98//132
f 96//133 100//133 97//133
f 96//134 35//134 41//134
f 100//135 96//135 41//135
f 97//136 101//136 98//136
f 101//137 97//137 100//137
f 100//138 102//138 101//138
f 102//139 100//139 41//139
f 101//140 103//140 98//140
f 103//138 101//138 102//138
f 104//141 98//141 103//141
f 98//142 104//142 99//142
f 41//143 47//143 102//143
f 105//144 102//144 47//144
f 102//145 105//145 103//145
f 103//146 106//146 104//146
f 106//147 103//147 105//147
f 107//148 104//148 106//148
f 104//149 107//149 99//149
f 47//150 52//150 105//150
f 55//151 1//151 3//151
f 108//152 109//152 7//152
f 51//153 110//153 48//153
f 54//1 3//1 2//1
f 48//154 111//154 49//154
f 111//155 48//155 110//155
f 112//156 49//156 111//156
f 112//157 50//157 49//157
f 113//158 50//158 112//158
f 113//159 114//159 52//159
f 113//160 52//160 50//160
f 62//161 7//161 54//161
f 110//162 115//162 111//162
f 116//163 114//163 113//163
f 111//164 117//164 112//164
f 117//165 111//165 115//165
f 112//166 118//166 113//166
f 118//167 112//167 117//167
f 113//168 119//168 116//168
f 119//169 113//169 118//169
f 115//170 120//170 117//170
f 121//171 117//171 120//171
f 117//172 121//172 118//172
f 118//173 122//173 119//173
f 122//172 118//172 121//172
f 123//174 119//174 122//174
f 123//175 124//175 116//175
f 119//176 123//176 116//176
f 120//177 125//177 121//177
f 121//178 126//178 122//178
f 121//179 125//179 127//179
f 126//180 121//180 127//180
f 128//181 122//181 126//181
f 122//182 128//182 123//182
f 123//183 129//183 124//183
f 129//182 123//182 128//182
f 130//184 124//184 129//184
f 127//185 131//185 126//185
f 131//186 132//186 126//186
f 133//187 130//187 129//187
f 126//188 134//188 128//188
f 128//189 136//189 129//189
f 136//188 128//188 134//188
f 129//190 137//190 133//190
f 137//189 129//189 136//189
f 135//191 138//191 134//191
f 139//192 134//192 138//192
f 134//193 139//193 136//193
f 136//194 140//194 137//194
f 140//195 136//195 139//195
f 141//194 137//194 140//194
f 141//196 142//196 133//196
f 137//197 141//197 133//197
f 138//198 143//198 139//198
f 139//199 143//199 144//199
f 145//200 139//200 144//200
f 139//201 145//201 140//201
f 140//202 146//202 141//202
f 146//201 140//201 145//201
f 141//203 147//203 142//203
f 147//204 141//204 146//204
f 108//205 142//205 147//205
f 145//206 148//206 146//206
f 148//207 145//207 144//207
f 146//208 149//208 147//208
f 149//209 146//209 148//209
f 147//210 150//210 108//210
f 150//211 147//211 149//211
f 144//212 151//212 148//212
f 109//213 108//213 150//213
f 148//214 151//214 10//214
f 148//215 10//215 12//215
f 7//216 62//216 108//216
f 148//217 12//217 149//217
f 149//218 16//218 150//218
f 149//219 12//219 16//219
f 150//220 14//220 109//220
f 3//161 54//161 7//161
f 14//221 150//221 16//221
f 8//222 109//222 14//222
f 69//223 152//223 82//223
f 153//224 82//224 152//224
f 82//225 153//225 83//225
f 154//226 86//226 83//226
f 154//227 83//227 153//227
f 155//228 86//228 154//228
f 155//229 87//229 86//229
f 156//230 110//230 51//230
f 156//231 51//231 87//231
f 156//232 87//232 155//232
f 115//233 110//233 156//233
f 157//234 153//234 152//234
f 153//235 157//235 154//235
f 154//236 158//236 155//236
f 158//237 154//237 157//237
f 155//238 159//238 156//238
f 159//239 155//239 158//239
f 160//240 156//240 159//240
f 156//241 160//241 115//241
f 158//242 161//242 159//242
f 161//243 158//243 157//243
f 159//244 162//244 160//244
f 162//242 159//242 161//242
f 163//245 160//245 162//245
f 125//246 120//246 163//246
f 162//247 166//247 163//247
f 163//248 167//248 125//248
f 167//247 163//247 166//247
f 127//249 125//249 167//249
f 166//250 168//250 167//250
f 168//251 166//251 165//251
f 169//252 167//252 168//252
f 169//253 131//253 127//253
f 167//254 169//254 127//254
f 132//255 131//255 169//255
f 152//256 170//256 164//256
f 170//257 152//257 69//257
f 171//258 164//258 170//258
f 164//259 171//259 165//259
f 165//260 172//260 168//260
f 172//259 165//259 171//259
f 168//261 173//261 169//261
f 173//260 168//260 172//260
f 174//262 169//262 173//262
f 169//263 174//263 132//263
f 135//264 132//264 174//264
f 175//265 171//265 170//265
f 171//266 175//266 172//266
f 172//267 176//267 173//267
f 176//268 172//268 175//268
f 173//269 177//269 174//269
f 177//267 173//267 176//267
f 178//269 174//269 177//269
f 178//270 138//270 135//270
f 174//271 178//271 135//271
f 143//272 138//272 178//272
f 179//273 176//273 175//273
f 176//274 179//274 177//274
f 180//274 177//274 179//274
f 177//275 180//275 178//275
f 181//275 178//275 180//275
f 178//276 181//276 143//276
f 144//277 143//277 181//277
f 182//278 175//278 170//278
f 175//279 182//279 179//279
f 179//280 183//280 180//280
f 183//281 179//281 182//281
f 184//280 180//280 183//280
f 180//282 184//282 181//282
f 181//283 185//283 144//283
f 185//284 181//284 184//284
f 151//285 144//285 185//285
f 170//286 69//286 59//286
f 183//287 57//287 184//287
f 184//288 56//288 185//288
f 185//289 56//289 151//289
f 10//290 151//290 56//290
f 52//291 114//291 105//291
f 186//292 106//292 105//292
f 186//293 105//293 114//293
f 53//294 2//294 5//294
f 106//295 187//295 107//295
f 187//296 106//296 186//296
f 188//297 107//297 187//297
f 142//298 108//298 62//298
f 189//299 99//299 188//299
f 114//300 116//300 186//300
f 190//301 186//301 116//301
f 186//302 190//302 187//302
f 187//303 191//303 188//303
f 191//302 187//302 190//302
f 192//303 188//303 191//303
f 188//304 192//304 189//304
f 116//305 124//305 190//305
f 193//306 190//306 124//306
f 190//307 193//307 191//307
f 194//307 191//307 193//307
f 191//308 194//308 192//308
f 192//309 195//309 189//309
f 195//310 192//310 194//310
f 124//311 130//311 193//311
f 193//312 196//312 194//312
f 196//313 193//313 130//313
f 194//314 197//314 195//314
f 197//315 194//315 196//315
f 196//316 130//316 133//316
f 198//317 196//317 133//317
f 196//318 198//318 197//318
f 199//318 197//318 198//318
f 197//319 199//319 195//319
f 53//319 195//319 199//319
f 195//320 53//320 189//320
f 5//321 189//321 53//321
f 189//322 5//322 99//322
f 198//323 200//323 199//323
f 61//324 199//324 200//324
f 199//325 61//325 53//325
f 62//326 200//326 142//326
f 200//62 62//62 61//62
f 61//55 54//55 53//55
f 8//327 9//327 109//327
f 7//328 109//328 9//328
f 133//329 200//329 198//329
f 133//330 142//330 200//330
f 120//331 160//331 163//331
f 115//332 160//332 120//332
f 157//333 201//333 161//333
f 164//334 201//334 152//334
f 201//335 157//335 152//335
f 165//336 166//336 202//336
f 164//337 165//337 202//337
f 162//338 202//338 166//338
f 161//339 202//339 162//339
f 164//340 202//340 201//340
f 161//341 201//341 202//341
f 63//342 203//342 60//342
f 56//343 204//343 11//343
f 204//344 64//344 11//344
f 64//345 204//345 203//345
f 64//346 203//346 63//346
f 57//347 205//347 184//347
f 205//348 56//348 184//348
f 57//349 203//349 205//349
f 57//350 58//350 203//350
f 58//351 60//351 203//351
f 56//352 203//352 204//352
f 56//353 205//353 203//353
f 59//354 206//354 65//354
f 206//355 68//355 65//355
f 68//356 206//356 69//356
f 206//357 59//357 69//357
f 59//358 207//358 170//358
f 207//359 182//359 170//359
f 182//360 207//360 183//360
f 183//361 207//361 57//361
f 207//362 59//362 57//362
f 132//363 135//363 134//363
f 126//186 132//186 134//186
f 5//364 6//364 99//364
f 99//365 107//365 188//365
