# Blender 4.4.3
# www.blender.org
mtllib f_middle_E2M3.mtl
o middle
v -5.154970 -5.676910 -5.651639
v -6.985930 -8.862471 -7.507730
v -8.013969 -7.982400 -5.977890
v -8.480969 -6.987890 -4.318419
v -8.500170 -5.469900 0.021880
v -8.500170 -12.777900 -3.889609
v -8.489369 -18.597889 -3.705559
v -8.500170 -20.537899 0.021882
v -8.225670 -21.843500 3.737702
v -3.500170 -1.218899 7.979650
v -3.500170 -24.446890 7.049802
v 3.492960 -1.218899 7.979650
v 3.499830 -24.446890 7.049802
v -4.298070 -24.018900 7.002772
v -4.757570 -2.145900 7.781740
v -6.731770 -2.872400 6.685500
v -6.311270 -22.773899 6.251022
v -7.752570 -3.444479 5.534481
v -7.627570 -22.204649 4.939402
v -8.429669 -4.187910 3.694290
v -3.431690 -15.628901 -8.644049
v -3.500170 -12.688901 -8.933319
v 3.424480 -15.628901 -8.644049
v 3.492960 -12.688901 -8.933319
v -3.500170 -9.813901 -8.976068
v 3.492960 -9.813901 -8.976068
v -6.413370 -17.154900 -7.450558
v -4.732770 -17.096899 -7.886828
v -7.464270 -19.659380 -4.932368
v -4.000170 -19.768900 -5.214448
v 3.999830 -19.768900 -5.214448
v -3.500170 -8.825911 -8.705389
v -4.000170 -5.848900 -5.823189
v 3.999830 -5.848900 -5.823189
v 3.492960 -8.825911 -8.705389
v 4.487960 -20.772900 -5.617098
v -8.119570 -12.861899 -5.837209
v -7.035670 -12.930901 -7.457819
v -7.076570 -16.535900 -7.152618
v -8.027070 -17.552050 -5.462308
v -5.413570 -12.828341 -8.540679
v -5.526400 -15.991060 -8.058868
v -5.669070 -9.505900 -8.477778
v -4.495170 -20.772900 -5.617098
v 4.750360 -22.179899 -6.437998
v 4.757230 -25.881910 -6.973208
v 4.757230 -27.705900 -6.489648
v 4.757230 -30.656898 -4.190928
v 4.757230 -31.571890 -2.540568
v 4.757230 -31.957899 1.179802
v 4.757230 -31.401899 2.983012
v 4.757230 -30.386900 4.574112
v 4.757230 -27.300900 6.687162
v 4.757230 -25.450909 7.057712
v -4.757570 -22.179899 -6.437998
v -4.757570 -25.881910 -6.973208
v -4.757570 -27.705900 -6.489648
v -4.757570 -30.656898 -4.190928
v -4.757570 -31.571890 -2.540568
v -4.757570 -31.957899 1.179802
v -4.757570 -31.401899 2.983012
v -4.757570 -30.386900 4.574112
v -4.757570 -27.300900 6.687162
v -4.757570 -25.450909 7.057712
v -5.905570 -22.900900 -6.467488
v -5.905570 -26.079899 -6.714298
v -5.878870 -29.331690 -4.670698
v -5.905570 -31.089899 -3.059298
v -5.905570 -31.825909 0.043752
v -5.905570 -31.069889 3.142022
v -5.905570 -28.988899 5.558402
v -5.905570 -26.036909 6.764832
v -8.773640 -22.568850 -3.349108
v -8.450029 -20.409319 -3.339628
v -8.999960 -25.822010 -3.586778
v -8.999960 -27.581030 -2.605588
v -8.121469 -29.932899 0.021882
v -8.999960 -27.469900 3.114342
v -8.121469 -25.050900 4.950332
v -9.000000 -28.726139 0.021882
v -8.999960 -25.230339 3.878122
v -9.000190 -23.152899 0.026422
v -6.878870 -2.176910 -6.812390
v -6.523960 -5.636130 -4.865099
v -4.757570 -3.798900 -7.077679
v -4.757570 -1.971901 -7.783830
v -6.878870 2.893099 -6.538240
v -4.757570 -0.028891 -8.028080
v -4.757570 1.915109 -7.796000
v -6.878870 4.573889 -5.854020
v -4.757570 5.355089 -5.985130
v -6.405570 6.293099 -4.618150
v -4.757570 6.647099 -4.513470
v -5.905570 7.337640 -1.568681
v -4.757570 7.545100 -2.773520
v -5.905570 7.620090 1.770759
v -4.757570 7.975100 1.090099
v -4.757570 7.481100 2.984900
v -5.905570 6.195100 4.791359
v -4.757570 6.544100 4.704469
v -6.878870 6.170100 3.669479
v -5.905570 3.641100 6.942469
v -4.757570 5.220100 6.146919
v -4.757570 3.586100 7.226939
v -8.121469 -0.104330 6.008870
v -5.905570 0.422091 7.634140
v -4.757570 1.740101 7.880620
v 4.757230 -3.798900 -7.077679
v 4.757230 -1.971901 -7.783830
v 4.757230 -0.028891 -8.028080
v 4.757230 1.915109 -7.796000
v 4.757230 5.355089 -5.985130
v 4.757230 6.647099 -4.513470
v 4.757230 7.545100 -2.773520
v 4.757230 7.975100 1.090099
v 4.757230 7.481100 2.984900
v 4.757230 6.544100 4.704469
v 4.757230 5.220100 6.146919
v 4.757230 3.586100 7.226939
v 4.757230 1.740101 7.880620
v -7.878870 -2.463001 -5.407860
v -8.500000 -4.341910 -3.558340
v -9.000000 1.173100 -3.599130
v -9.000000 3.076100 -2.216030
v -9.000000 -4.392910 0.021880
v -9.000000 4.580100 0.021880
v -9.000000 3.076100 2.259790
v -9.000000 1.099100 3.744800
v -8.121469 5.701100 1.636160
v -8.121469 0.429100 -5.891000
v -6.878870 -0.480911 -7.133550
v -8.121469 1.876099 -5.600890
v -8.120999 4.186100 -4.852410
v -8.121469 5.741090 -1.442780
v -8.120999 2.536040 5.473260
v -8.120999 4.139520 4.618139
v -6.754660 -3.906520 -5.905319
v -8.458230 -5.688800 -3.706149
v -8.120999 -28.386730 -3.838168
v -8.120999 -25.948540 -4.784038
v -8.120999 -29.143299 -3.164868
v -7.969330 -22.715109 -4.728898
v -8.120999 -28.018669 3.997302
v -8.120999 -29.120550 3.127032
v 8.113790 -29.120550 3.127032
v 8.113790 -28.018669 3.997302
v 7.962120 -22.715109 -4.728898
v 8.113790 -29.143299 -3.164878
v 8.113790 -25.948540 -4.784038
v 8.113790 -28.386730 -3.838168
v 8.451020 -5.688800 -3.706149
v 6.747460 -3.906520 -5.905329
v 8.113790 4.139520 4.618139
v 8.113790 2.536040 5.473260
v 8.114260 5.741100 -1.442780
v 8.113790 4.186100 -4.852410
v 8.114260 1.876109 -5.600890
v 6.871660 -0.480901 -7.133550
v 8.114260 0.429100 -5.891000
v 8.114260 5.701100 1.636160
v 9.000000 1.099100 3.744800
v 9.000000 3.076100 2.259790
v 9.000000 4.580100 0.021880
v 9.000000 -4.392910 0.021880
v 9.000000 3.076100 -2.216030
v 9.000000 1.173100 -3.599130
v 8.492790 -4.341910 -3.558340
v 7.871660 -2.463001 -5.407860
v 5.898360 0.422091 7.634140
v 8.114260 -0.104320 6.008870
v 5.898360 3.641100 6.942469
v 6.871660 6.170100 3.669479
v 5.898360 6.195110 4.791359
v 5.898360 7.620090 1.770759
v 5.898360 7.337640 -1.568681
v 6.398360 6.293099 -4.618150
v 6.871660 4.573889 -5.854020
v 6.871660 2.893099 -6.538240
v 6.516750 -5.636130 -4.865099
v 6.871660 -2.176900 -6.812390
v 9.000190 -23.152899 0.026422
v 8.999960 -25.230339 3.878122
v 9.000000 -28.726139 0.021882
v 8.114260 -25.050900 4.950332
v 8.999960 -27.469900 3.114342
v 8.114260 -29.932899 0.021882
v 8.999960 -27.581030 -2.605588
v 8.999960 -25.822010 -3.586778
v 8.442820 -20.409319 -3.339628
v 8.766430 -22.568850 -3.349108
v 5.898360 -26.036909 6.764832
v 5.898360 -28.988899 5.558402
v 5.898360 -31.069889 3.142022
v 5.898360 -31.825909 0.043742
v 5.898360 -31.089899 -3.059298
v 5.871660 -29.331690 -4.670698
v 5.898360 -26.079899 -6.714298
v 5.898360 -22.900900 -6.467488
v 5.661860 -9.505900 -8.477778
v 5.519190 -15.991060 -8.058868
v 5.406360 -12.828341 -8.540679
v 8.019860 -17.552050 -5.462308
v 7.069360 -16.535900 -7.152618
v 7.028460 -12.930901 -7.457819
v 8.112360 -12.861899 -5.837209
v 7.457060 -19.659380 -4.932368
v 4.725560 -17.096899 -7.886828
v 6.406160 -17.154900 -7.450558
v 8.422460 -4.187910 3.694290
v 7.620360 -22.204649 4.939402
v 7.745360 -3.444479 5.534481
v 6.304060 -22.773899 6.251022
v 6.724560 -2.872400 6.685500
v 4.750360 -2.145900 7.781740
v 4.290860 -24.018900 7.002772
v 8.218460 -21.843500 3.737702
v 8.492960 -20.537899 0.021882
v 8.482160 -18.597889 -3.705559
v 8.492960 -12.777900 -3.889609
v 8.492960 -5.469900 0.021880
v 8.473760 -6.987890 -4.318419
v 8.006760 -7.982400 -5.977890
v 6.978730 -8.862471 -7.507730
v 5.147760 -5.676900 -5.651639
vn -0.4308 0.6262 -0.6498
vn -1.0000 0.0029 -0.0054
vn -1.0000 -0.0018 0.0033
vn -1.0000 -0.0000 -0.0029
vn -0.9973 -0.0000 0.0737
vn -0.0000 -0.0400 0.9992
vn -0.0801 -0.0399 0.9960
vn -0.1280 -0.0380 0.9910
vn -0.4734 -0.0413 0.8799
vn -0.3648 -0.0280 0.9306
vn -0.7403 -0.0303 0.6716
vn -0.7114 -0.0270 0.7022
vn -0.8974 -0.0200 0.4407
vn -0.9371 -0.0100 0.3488
vn -0.9997 -0.0115 0.0232
vn -0.0000 -0.0979 -0.9952
vn -0.0000 -0.0149 -0.9999
vn -0.1664 -0.6635 -0.7294
vn -0.0791 -0.7157 -0.6939
vn 0.2982 -0.6329 -0.7145
vn -0.0000 -0.6379 -0.7701
vn -0.2667 0.5950 -0.7581
vn -0.0032 0.6953 -0.7187
vn -0.0000 0.6956 -0.7185
vn -0.9650 -0.0162 -0.2619
vn -0.9812 0.0157 -0.1924
vn -0.8295 0.0019 -0.5585
vn -0.8312 0.0033 -0.5560
vn -0.4704 -0.1165 -0.8747
vn -0.5513 -0.0642 -0.8319
vn -0.5939 -0.0026 -0.8045
vn -0.5538 -0.0268 -0.8322
vn -0.2237 0.0012 -0.9746
vn -0.2444 -0.1375 -0.9599
vn -0.1930 -0.1005 -0.9760
vn -0.2000 -0.0146 -0.9797
vn -0.0000 0.3722 -0.9281
vn -0.0000 0.5039 -0.8637
vn -0.0000 0.1431 -0.9897
vn -0.0000 -0.2563 -0.9666
vn -0.0000 -0.6145 -0.7889
vn -0.0000 -0.8746 -0.4849
vn -0.0000 -0.9947 -0.1032
vn -0.0000 -0.9556 0.2947
vn -0.0000 -0.8431 0.5378
vn -0.0000 -0.5650 0.8251
vn -0.0000 -0.1964 0.9805
vn -0.0000 0.0079 1.0000
vn -0.0327 0.0488 0.9983
vn -0.0095 0.5052 -0.8629
vn -0.1919 0.3432 -0.9195
vn -0.0643 0.1428 -0.9877
vn -0.2317 0.0753 -0.9699
vn -0.1712 -0.2525 -0.9523
vn -0.5103 -0.4606 -0.7263
vn -0.3623 -0.5728 -0.7353
vn -0.4305 -0.6063 -0.6687
vn -0.1465 -0.8651 -0.4797
vn -0.2911 -0.9309 -0.2208
vn -0.0122 -0.9946 -0.1032
vn -0.3725 -0.8868 0.2734
vn -0.2408 -0.9429 0.2301
vn -0.1669 -0.8312 0.5303
vn -0.3414 -0.7122 0.6134
vn 0.0194 -0.5649 0.8250
vn -0.3336 -0.3566 0.8726
vn -0.1482 -0.1942 0.9697
vn -0.3092 0.1353 0.9413
vn -0.2846 0.1145 0.9518
vn -0.8695 0.1324 -0.4758
vn -0.6382 -0.7491 -0.1777
vn -0.6397 -0.7467 0.1822
vn -0.6796 -0.2775 0.6791
vn -0.6205 0.0461 0.7828
vn -0.6743 0.1198 0.7287
vn -0.7366 -0.2183 0.6401
vn -0.7739 0.2018 0.6003
vn -0.8658 0.1521 0.4766
vn -0.9729 0.1863 0.1373
vn -0.9665 0.2260 0.1220
vn -1.0000 -0.0000 -0.0000
vn -0.9889 0.1482 -0.0091
vn -0.9817 0.1876 -0.0334
vn -0.9958 0.0732 -0.0542
vn -0.3652 -0.3356 -0.8683
vn -0.2207 0.4543 -0.8631
vn -0.3514 0.3530 -0.8671
vn -0.2706 0.6099 -0.7448
vn -0.1187 0.7462 -0.6551
vn -0.1480 0.9570 0.2495
vn -0.2248 0.8556 0.4662
vn -0.3234 0.8558 0.4037
vn -0.4579 0.8040 0.3793
vn -0.6682 0.4793 0.5690
vn -0.1703 0.7260 0.6663
vn -0.3354 0.6069 0.7206
vn -0.1774 0.5427 0.8210
vn -0.6086 0.1667 0.7758
vn -0.1676 -0.0382 0.9851
vn -0.0000 0.2642 -0.9645
vn -0.0000 -0.5220 -0.8530
vn -0.0000 -0.3605 -0.9328
vn -0.0000 -0.1247 -0.9922
vn -0.0000 0.1185 -0.9929
vn -0.0000 0.4658 -0.8849
vn -0.0000 0.7515 -0.6597
vn -0.0000 0.8886 -0.4586
vn -0.0000 0.9939 -0.1106
vn -0.0000 0.9677 0.2523
vn -0.0000 0.8781 0.4785
vn -0.0000 0.7367 0.6762
vn -0.0000 0.5514 0.8342
vn -0.0000 0.3338 0.9426
vn -0.0000 0.0334 0.9994
vn -0.2664 0.5963 -0.7572
vn -0.9149 -0.0859 -0.3945
vn -0.9016 0.3591 0.2413
vn -0.9049 -0.1562 0.3960
vn -0.9447 -0.1049 0.3108
vn -0.8951 -0.4154 0.1622
vn -0.7456 -0.1240 -0.6548
vn -0.6509 0.1319 -0.7476
vn -0.6692 0.1461 -0.7286
vn -0.6963 0.2214 -0.6828
vn -0.6540 0.2852 -0.7006
vn -0.6179 0.5640 -0.5479
vn -0.5820 0.7938 -0.1765
vn -0.5841 0.8116 0.0105
vn -0.6511 0.7563 -0.0640
vn -0.6455 0.7295 0.2262
vn -0.5545 -0.1767 0.8132
vn -0.7472 -0.0040 0.6646
vn -0.1810 0.2599 -0.9485
vn -0.9392 -0.1318 -0.3172
vn -0.9226 0.0758 -0.3783
vn -0.9239 0.1181 -0.3640
vn -0.9536 0.1769 -0.2435
vn -0.8968 0.3672 -0.2468
vn -0.7926 0.6097 0.0079
vn -0.9996 -0.0249 -0.0159
vn -0.8139 -0.1320 -0.5659
vn -0.8451 -0.3312 -0.4196
vn -0.6941 -0.3443 -0.6321
vn -0.6650 -0.4130 -0.6222
vn -0.4783 -0.0920 -0.8734
vn -0.2291 -0.3081 -0.9234
vn -0.2094 -0.2953 -0.9322
vn -0.0620 0.3977 -0.9154
vn -0.4499 0.1552 -0.8795
vn -0.4058 0.1083 -0.9075
vn -0.3648 -0.1161 -0.9238
vn -0.3966 -0.1708 -0.9020
vn -0.7276 0.6241 -0.2847
vn -0.9227 0.3506 -0.1600
vn -0.7872 -0.1653 -0.5941
vn -0.9815 -0.1074 0.1584
vn -0.8992 -0.4173 -0.1315
vn -0.9862 -0.0904 -0.1390
vn -0.9181 0.3510 0.1839
vn -0.7380 0.5977 0.3131
vn -0.5108 0.6001 0.6156
vn -0.6340 0.3639 0.6823
vn -0.5996 0.1592 0.7843
vn -0.9140 0.0808 0.3976
vn -0.9655 -0.0100 -0.2601
vn -0.9811 -0.0346 -0.1902
vn -0.8549 -0.0581 -0.5156
vn -0.8314 -0.0375 -0.5544
vn -0.1486 -0.0096 0.9889
vn -0.4389 -0.1453 0.8867
vn -0.5766 0.6191 -0.5332
vn -0.3908 0.5852 -0.7105
vn -0.4412 -0.5050 -0.7418
vn -0.3716 -0.4520 -0.8109
vn -0.7235 -0.3606 -0.5886
vn -0.7536 -0.4097 -0.5141
vn -0.6725 -0.3943 -0.6264
vn -0.9995 -0.0300 -0.0095
vn -0.9996 0.0234 -0.0126
vn -0.4830 0.3802 -0.7888
vn -0.5140 0.0778 -0.8543
vn -0.4569 -0.4746 -0.7523
vn -0.2029 -0.5646 -0.8001
vn -1.0000 -0.0000 0.0001
vn -0.6404 0.0548 -0.7661
vn -0.8540 0.1072 -0.5092
vn -0.8606 0.0490 -0.5069
vn -0.7975 -0.2182 -0.5624
vn -0.8581 -0.2501 -0.4484
vn -0.8562 -0.3435 -0.3860
vn -0.6438 -0.7427 -0.1841
vn -0.6489 -0.7360 0.1927
vn -0.7616 -0.4016 0.5085
vn -0.7539 -0.2010 0.6255
vn -0.6270 -0.2383 0.7417
vn -0.6361 -0.4782 0.6055
vn -0.5573 -0.6292 0.5418
vn -0.4848 -0.5869 -0.6484
vn -0.4870 -0.5806 -0.6525
vn -0.4746 -0.4711 -0.7435
vn -0.6404 -0.2778 -0.7161
vn -0.7971 0.0990 -0.5957
vn -0.6538 0.0586 -0.7544
vn -0.6414 0.0431 -0.7660
vn -0.9287 0.1745 0.3272
vn -0.9444 0.1975 0.2629
vn -0.8832 -0.4299 -0.1874
vn -0.8000 -0.5824 -0.1444
vn -0.7990 -0.5817 0.1523
vn -0.8677 -0.4606 0.1871
vn -0.3371 0.9381 -0.0793
vn -0.2836 0.9531 -0.1061
vn -0.4068 0.8826 -0.2356
vn -0.1597 0.8772 -0.4527
vn -0.2126 0.3262 0.9211
vn -0.4112 0.1915 0.8912
vn 0.4133 0.1913 0.8903
vn 0.2138 0.3261 0.9208
vn 0.1603 0.8771 -0.4527
vn 0.4086 0.8819 -0.2351
vn 0.2851 0.9526 -0.1060
vn 0.3389 0.9375 -0.0793
vn 0.8659 -0.4634 0.1883
vn 0.7967 -0.5847 0.1531
vn 0.7976 -0.5854 -0.1452
vn 0.8816 -0.4326 -0.1885
vn 0.9435 0.1989 0.2649
vn 0.9276 0.1757 0.3295
vn 0.6414 0.0431 -0.7660
vn 0.6538 0.0586 -0.7544
vn 0.7946 0.1008 -0.5988
vn 0.6404 -0.2778 -0.7161
vn 0.4746 -0.4711 -0.7435
vn 0.4870 -0.5806 -0.6525
vn 0.4848 -0.5869 -0.6484
vn 0.5573 -0.6292 0.5418
vn 0.6361 -0.4782 0.6055
vn 0.6270 -0.2383 0.7417
vn 0.7512 -0.2019 0.6284
vn 0.7590 -0.4035 0.5109
vn 0.6489 -0.7360 0.1927
vn 0.6438 -0.7427 -0.1841
vn 0.8543 -0.3456 -0.3883
vn 0.8563 -0.2516 -0.4511
vn 0.7951 -0.2193 -0.5654
vn 0.8606 0.0490 -0.5069
vn 0.8540 0.1072 -0.5092
vn 0.6404 0.0548 -0.7661
vn 1.0000 -0.0000 -0.0000
vn 1.0000 -0.0000 0.0001
vn 0.2041 -0.5647 -0.7996
vn 0.4586 -0.4750 -0.7511
vn 0.5140 0.0778 -0.8543
vn 0.4830 0.3802 -0.7888
vn 0.9996 0.0234 -0.0126
vn 0.9995 -0.0300 -0.0095
vn 0.6725 -0.3943 -0.6264
vn 0.7536 -0.4097 -0.5141
vn 0.7235 -0.3606 -0.5886
vn 0.3716 -0.4520 -0.8110
vn 0.4412 -0.5050 -0.7418
vn 0.3908 0.5852 -0.7105
vn 0.5766 0.6191 -0.5332
vn 0.4389 -0.1453 0.8867
vn 0.1486 -0.0096 0.9889
vn 0.8314 -0.0375 -0.5544
vn 0.8548 -0.0581 -0.5156
vn 0.9811 -0.0346 -0.1902
vn 0.9655 -0.0100 -0.2601
vn 0.9127 0.0814 0.4003
vn 0.5996 0.1592 0.7843
vn 0.6340 0.3639 0.6823
vn 0.5108 0.6001 0.6156
vn 0.7380 0.5977 0.3131
vn 0.9170 0.3534 0.1852
vn 0.9858 -0.0917 -0.1410
vn 0.8967 -0.4222 -0.1330
vn 0.9811 -0.1087 0.1604
vn 0.7872 -0.1653 -0.5941
vn 0.9216 0.3531 -0.1611
vn 0.7276 0.6241 -0.2847
vn 0.3976 -0.1707 -0.9015
vn 0.3658 -0.1161 -0.9234
vn 0.4069 0.1083 -0.9070
vn 0.4511 0.1551 -0.8789
vn 0.0621 0.3974 -0.9156
vn 0.2094 -0.2953 -0.9322
vn 0.2291 -0.3081 -0.9234
vn 0.4783 -0.0920 -0.8734
vn 0.6650 -0.4130 -0.6222
vn 0.6941 -0.3443 -0.6321
vn 0.8451 -0.3312 -0.4196
vn 0.8139 -0.1320 -0.5659
vn 0.9996 -0.0249 -0.0159
vn 0.7902 0.6129 0.0080
vn 0.8953 0.3697 -0.2484
vn 0.9529 0.1783 -0.2453
vn 0.9228 0.1190 -0.3665
vn 0.9215 0.0764 -0.3809
vn 0.9383 -0.1321 -0.3197
vn 0.1810 0.2599 -0.9485
vn 0.7472 -0.0040 0.6646
vn 0.5545 -0.1767 0.8132
vn 0.6455 0.7295 0.2262
vn 0.6511 0.7563 -0.0640
vn 0.5841 0.8116 0.0105
vn 0.5820 0.7938 -0.1765
vn 0.6179 0.5640 -0.5479
vn 0.6540 0.2852 -0.7006
vn 0.6963 0.2214 -0.6828
vn 0.6692 0.1461 -0.7286
vn 0.6509 0.1319 -0.7476
vn 0.7456 -0.1240 -0.6548
vn 0.8925 -0.4202 0.1638
vn 0.9439 -0.1061 0.3129
vn 0.9049 -0.1562 0.3960
vn 0.9002 0.3615 0.2429
vn 0.9143 -0.0870 -0.3955
vn 0.2664 0.5963 -0.7572
vn 0.1680 -0.0388 0.9850
vn 0.6086 0.1667 0.7758
vn 0.1785 0.5426 0.8208
vn 0.3372 0.6065 0.7201
vn 0.1712 0.7258 0.6662
vn 0.6682 0.4793 0.5690
vn 0.4579 0.8040 0.3793
vn 0.3251 0.8553 0.4035
vn 0.2261 0.8554 0.4661
vn 0.1489 0.9569 0.2495
vn 0.1192 0.7461 -0.6550
vn 0.2715 0.6099 -0.7445
vn 0.3524 0.3529 -0.8668
vn 0.2213 0.4543 -0.8629
vn 0.3662 -0.3355 -0.8679
vn 0.9956 0.0755 -0.0559
vn 0.9811 0.1902 -0.0350
vn 0.9889 0.1482 -0.0091
vn 0.9659 0.2280 0.1230
vn 0.9722 0.1888 0.1382
vn 0.8658 0.1521 0.4766
vn 0.7713 0.2030 0.6032
vn 0.7339 -0.2193 0.6429
vn 0.6743 0.1198 0.7287
vn 0.6205 0.0461 0.7828
vn 0.6796 -0.2775 0.6791
vn 0.6397 -0.7467 0.1822
vn 0.6382 -0.7491 -0.1777
vn 0.8695 0.1324 -0.4758
vn 0.2846 0.1145 0.9518
vn 0.3120 0.1377 0.9401
vn 0.1491 -0.1942 0.9696
vn 0.3354 -0.3564 0.8721
vn -0.0196 -0.5649 0.8250
vn 0.3432 -0.7117 0.6129
vn 0.1679 -0.8311 0.5302
vn 0.2422 -0.9426 0.2300
vn 0.3745 -0.8861 0.2732
vn 0.0123 -0.9946 -0.1032
vn 0.2927 -0.9304 -0.2207
vn 0.1474 -0.8650 -0.4796
vn 0.4326 -0.6056 -0.6679
vn 0.3643 -0.5723 -0.7347
vn 0.5126 -0.4599 -0.7251
vn 0.1722 -0.2524 -0.9522
vn 0.2330 0.0753 -0.9695
vn 0.0644 0.1429 -0.9876
vn 0.1919 0.3432 -0.9195
vn 0.0095 0.5052 -0.8629
vn 0.0328 0.0490 0.9983
vn 0.2000 -0.0146 -0.9797
vn 0.1930 -0.1005 -0.9760
vn 0.2444 -0.1375 -0.9599
vn 0.2237 0.0012 -0.9746
vn 0.5538 -0.0268 -0.8322
vn 0.5939 -0.0026 -0.8045
vn 0.5513 -0.0642 -0.8319
vn 0.4704 -0.1165 -0.8747
vn 0.8312 0.0033 -0.5560
vn 0.8295 0.0019 -0.5585
vn 0.9812 0.0157 -0.1924
vn 0.9650 -0.0162 -0.2619
vn 0.0032 0.6953 -0.7187
vn 0.2667 0.5950 -0.7581
vn -0.2987 -0.6331 -0.7141
vn 0.0793 -0.7156 -0.6940
vn 0.1664 -0.6635 -0.7294
vn 0.9997 -0.0115 0.0232
vn 0.9371 -0.0100 0.3488
vn 0.8974 -0.0200 0.4407
vn 0.7114 -0.0270 0.7022
vn 0.7403 -0.0303 0.6716
vn 0.3648 -0.0280 0.9306
vn 0.4734 -0.0413 0.8799
vn 0.1280 -0.0380 0.9910
vn 0.0808 -0.0398 0.9959
vn 0.9973 -0.0000 0.0737
vn 1.0000 -0.0000 -0.0029
vn 1.0000 -0.0018 0.0033
vn 1.0000 0.0029 -0.0054
vn 0.4308 0.6262 -0.6498
s 0
usemtl black_spec.008
f 1//1 2//1 3//1
f 5//2 4//2 6//2
f 5//3 6//3 7//3
f 5//4 7//4 8//4
f 9//5 5//5 8//5
f 10//6 11//6 12//6
f 13//6 12//6 11//6
f 14//7 11//7 10//7
f 14//8 10//8 15//8
f 15//9 16//9 14//9
f 17//10 14//10 16//10
f 16//11 18//11 17//11
f 19//12 17//12 18//12
f 9//13 19//13 18//13
f 18//14 20//14 9//14
f 20//15 5//15 9//15
f 21//16 22//16 23//16
f 24//16 23//16 22//16
f 22//17 25//17 24//17
f 26//17 24//17 25//17
f 27//18 28//18 29//18
f 30//19 29//19 28//19
f 28//20 21//20 30//20
f 30//21 21//21 23//21
f 31//21 30//21 23//21
f 2//22 1//22 32//22
f 1//23 33//23 32//23
f 34//24 35//24 32//24
f 33//24 34//24 32//24
f 6//25 4//25 3//25
f 37//26 6//26 3//26
f 37//27 3//27 2//27
f 38//28 37//28 2//28
f 41//29 42//29 39//29
f 38//30 41//30 39//30
f 38//31 2//31 43//31
f 41//32 38//32 43//32
f 43//33 25//33 41//33
f 21//34 42//34 41//34
f 41//35 22//35 21//35
f 41//36 25//36 22//36
f 36//37 44//37 30//37
f 44//38 45//38 55//38
f 45//39 46//39 55//39
f 56//39 55//39 46//39
f 46//40 47//40 56//40
f 57//40 56//40 47//40
f 47//41 48//41 57//41
f 58//41 57//41 48//41
f 48//42 49//42 58//42
f 59//42 58//42 49//42
f 49//43 50//43 59//43
f 60//43 59//43 50//43
f 50//44 51//44 60//44
f 61//44 60//44 51//44
f 51//45 52//45 61//45
f 62//45 61//45 52//45
f 52//46 53//46 62//46
f 63//46 62//46 53//46
f 53//47 54//47 63//47
f 64//47 63//47 54//47
f 13//48 64//48 54//48
f 64//48 13//48 11//48
f 64//49 11//49 14//49
f 29//50 44//50 55//50
f 65//51 29//51 55//51
f 65//52 55//52 56//52
f 66//53 65//53 56//53
f 56//54 57//54 66//54
f 67//55 66//55 57//55
f 67//56 57//56 58//56
f 68//57 67//57 58//57
f 58//58 59//58 68//58
f 69//59 68//59 59//59
f 59//60 60//60 69//60
f 69//61 60//61 61//61
f 70//62 69//62 61//62
f 61//63 62//63 70//63
f 71//64 70//64 62//64
f 62//65 63//65 71//65
f 72//66 71//66 63//66
f 63//67 64//67 72//67
f 72//68 64//68 14//68
f 72//69 14//69 17//69
f 73//70 74//70 29//70
f 68//71 69//71 77//71
f 69//72 70//72 77//72
f 71//73 72//73 79//73
f 72//74 17//74 79//74
f 19//75 79//75 17//75
f 81//76 78//76 79//76
f 9//77 81//77 79//77
f 79//78 19//78 9//78
f 9//79 8//79 82//79
f 9//80 82//80 81//80
f 76//81 80//81 82//81
f 75//81 76//81 82//81
f 73//82 8//82 74//82
f 8//83 73//83 82//83
f 75//84 82//84 73//84
f 86//85 85//85 83//85
f 90//86 91//86 89//86
f 87//87 90//87 89//87
f 90//88 92//88 91//88
f 93//89 91//89 92//89
f 98//90 97//90 96//90
f 99//91 100//91 98//91
f 96//92 99//92 98//92
f 99//93 96//93 101//93
f 101//94 102//94 99//94
f 103//95 100//95 99//95
f 99//96 102//96 103//96
f 104//97 103//97 102//97
f 106//98 102//98 105//98
f 10//99 107//99 106//99
f 35//100 26//100 32//100
f 85//101 34//101 33//101
f 34//101 85//101 108//101
f 85//102 86//102 108//102
f 109//102 108//102 86//102
f 86//103 88//103 109//103
f 110//103 109//103 88//103
f 88//104 89//104 110//104
f 111//104 110//104 89//104
f 89//105 91//105 111//105
f 112//105 111//105 91//105
f 91//106 93//106 112//106
f 113//106 112//106 93//106
f 93//107 95//107 113//107
f 114//107 113//107 95//107
f 95//108 97//108 114//108
f 115//108 114//108 97//108
f 97//109 98//109 115//109
f 116//109 115//109 98//109
f 98//110 100//110 116//110
f 117//110 116//110 100//110
f 100//111 103//111 117//111
f 118//111 117//111 103//111
f 103//112 104//112 118//112
f 119//112 118//112 104//112
f 104//113 107//113 119//113
f 120//113 119//113 107//113
f 107//114 10//114 120//114
f 12//114 120//114 10//114
f 2//115 32//115 43//115
f 121//116 122//116 123//116
f 124//81 123//81 125//81
f 126//81 124//81 125//81
f 25//100 32//100 26//100
f 127//117 129//117 126//117
f 105//118 20//118 18//118
f 105//119 128//119 20//119
f 20//120 125//120 5//120
f 131//121 83//121 130//121
f 87//122 131//122 130//122
f 130//123 132//123 87//123
f 132//124 133//124 87//124
f 90//125 87//125 133//125
f 92//126 90//126 133//126
f 94//127 92//127 134//127
f 134//128 129//128 94//128
f 96//129 94//129 129//129
f 101//130 96//130 129//130
f 105//131 18//131 106//131
f 16//132 106//132 18//132
f 25//133 43//133 32//133
f 121//134 123//134 130//134
f 132//135 130//135 123//135
f 123//136 133//136 132//136
f 123//137 124//137 133//137
f 124//138 126//138 134//138
f 129//139 134//139 126//139
f 7//140 74//140 8//140
f 7//141 29//141 74//141
f 31//37 36//37 30//37
f 7//142 40//142 29//142
f 27//143 29//143 40//143
f 40//144 39//144 27//144
f 42//145 27//145 39//145
f 28//146 27//146 42//146
f 42//147 21//147 28//147
f 30//148 44//148 29//148
f 87//149 89//149 131//149
f 88//150 131//150 89//150
f 86//151 131//151 88//151
f 83//152 131//152 86//152
f 92//153 133//153 134//153
f 124//154 134//154 133//154
f 83//155 121//155 130//155
f 125//81 127//81 126//81
f 125//81 128//81 127//81
f 20//156 128//156 125//156
f 5//157 125//157 122//157
f 122//158 125//158 123//158
f 127//159 136//159 129//159
f 136//160 101//160 129//160
f 101//161 136//161 102//161
f 135//162 102//162 136//162
f 102//163 135//163 105//163
f 135//164 128//164 105//164
f 6//165 40//165 7//165
f 6//166 37//166 40//166
f 37//167 39//167 40//167
f 37//168 38//168 39//168
f 10//169 106//169 15//169
f 15//170 106//170 16//170
f 3//171 4//171 84//171
f 1//172 3//172 84//172
f 137//173 1//173 84//173
f 83//174 1//174 137//174
f 83//175 137//175 121//175
f 137//176 84//176 121//176
f 84//177 122//177 121//177
f 122//178 138//178 5//178
f 138//179 4//179 5//179
f 4//180 138//180 84//180
f 138//181 122//181 84//181
f 1//182 83//182 85//182
f 1//183 85//183 33//183
f 78//184 81//184 82//184
f 78//81 82//81 80//81
f 65//185 142//185 29//185
f 142//186 73//186 29//186
f 140//187 73//187 142//187
f 139//188 75//188 140//188
f 75//189 139//189 76//189
f 141//190 76//190 139//190
f 141//191 68//191 77//191
f 70//192 144//192 77//192
f 143//193 78//193 144//193
f 78//194 143//194 79//194
f 143//195 71//195 79//195
f 71//196 143//196 144//196
f 71//197 144//197 70//197
f 68//198 141//198 67//198
f 141//199 139//199 67//199
f 67//200 139//200 66//200
f 139//201 140//201 66//201
f 73//202 140//202 75//202
f 66//203 140//203 65//203
f 140//204 142//204 65//204
f 128//205 135//205 136//205
f 128//206 136//206 127//206
f 76//207 141//207 80//207
f 77//208 80//208 141//208
f 77//209 144//209 80//209
f 78//210 80//210 144//210
f 94//211 96//211 97//211
f 94//212 97//212 95//212
f 92//213 94//213 95//213
f 92//214 95//214 93//214
f 102//215 107//215 104//215
f 102//216 106//216 107//216
f 171//217 120//217 169//217
f 171//218 119//218 120//218
f 176//219 113//219 114//219
f 176//220 114//220 175//220
f 175//221 114//221 115//221
f 175//222 115//222 174//222
f 185//223 145//223 183//223
f 186//224 183//224 145//224
f 186//225 148//225 183//225
f 187//226 183//226 148//226
f 161//227 162//227 153//227
f 161//228 153//228 154//228
f 149//229 198//229 147//229
f 197//230 198//230 149//230
f 190//231 188//231 149//231
f 150//232 197//232 149//232
f 196//233 197//233 150//233
f 148//234 196//234 150//234
f 195//235 196//235 148//235
f 192//236 193//236 145//236
f 192//237 145//237 146//237
f 146//238 184//238 192//238
f 185//239 184//239 146//239
f 146//240 145//240 185//240
f 193//241 186//241 145//241
f 148//242 186//242 195//242
f 148//243 150//243 187//243
f 188//244 187//244 150//244
f 150//245 149//245 188//245
f 149//246 147//246 190//246
f 147//247 206//247 190//247
f 198//248 206//248 147//248
f 185//249 183//249 181//249
f 185//250 181//250 182//250
f 224//251 34//251 108//251
f 224//252 108//252 180//252
f 151//253 179//253 167//253
f 221//254 179//254 151//254
f 151//255 220//255 221//255
f 167//256 220//256 151//256
f 179//257 168//257 167//257
f 152//258 168//258 179//258
f 180//259 168//259 152//259
f 152//260 224//260 180//260
f 179//261 224//261 152//261
f 224//262 179//262 222//262
f 222//263 179//263 221//263
f 214//264 213//264 169//264
f 12//265 214//265 169//265
f 205//266 203//266 204//266
f 205//267 202//267 203//267
f 219//268 202//268 205//268
f 219//269 218//269 202//269
f 154//270 170//270 161//270
f 171//271 170//271 154//271
f 154//272 153//272 171//272
f 172//273 171//273 153//273
f 153//274 160//274 172//274
f 162//275 160//275 153//275
f 167//276 166//276 164//276
f 220//277 167//277 164//277
f 209//278 164//278 161//278
f 164//249 162//249 161//249
f 164//249 163//249 162//249
f 180//279 159//279 168//279
f 165//280 156//280 155//280
f 176//281 155//281 156//281
f 180//282 109//282 158//282
f 109//283 110//283 158//283
f 110//284 111//284 158//284
f 178//285 158//285 111//285
f 31//286 206//286 36//286
f 200//287 207//287 23//287
f 207//288 200//288 208//288
f 200//289 203//289 208//289
f 202//290 208//290 203//290
f 208//291 202//291 206//291
f 218//292 206//292 202//292
f 218//293 189//293 206//293
f 218//294 217//294 189//294
f 160//295 163//295 155//295
f 165//296 155//296 163//296
f 166//297 156//297 165//297
f 166//298 157//298 156//298
f 157//299 166//299 159//299
f 168//300 159//300 166//300
f 26//301 35//301 199//301
f 213//302 211//302 169//302
f 170//303 169//303 211//303
f 172//304 160//304 174//304
f 174//305 160//305 175//305
f 155//306 175//306 160//306
f 175//307 155//307 176//307
f 176//308 156//308 177//308
f 177//309 156//309 178//309
f 157//310 178//310 156//310
f 159//311 178//311 157//311
f 178//312 159//312 158//312
f 158//313 159//313 180//313
f 209//314 220//314 164//314
f 170//315 209//315 161//315
f 170//316 211//316 209//316
f 162//317 163//317 160//317
f 163//249 164//249 165//249
f 165//249 164//249 166//249
f 168//318 166//318 167//318
f 223//319 199//319 35//319
f 12//320 169//320 120//320
f 169//321 170//321 171//321
f 119//322 171//322 118//322
f 173//323 118//323 171//323
f 118//324 173//324 117//324
f 172//325 173//325 171//325
f 173//326 172//326 174//326
f 174//327 116//327 173//327
f 173//328 116//328 117//328
f 116//329 174//329 115//329
f 113//330 176//330 112//330
f 177//331 112//331 176//331
f 178//332 111//332 177//332
f 177//333 111//333 112//333
f 109//334 180//334 108//334
f 188//335 190//335 181//335
f 217//336 181//336 190//336
f 190//337 189//337 217//337
f 188//249 181//249 187//249
f 187//249 181//249 183//249
f 216//338 182//338 181//338
f 216//339 181//339 217//339
f 184//340 216//340 210//340
f 216//341 184//341 182//341
f 182//342 184//342 185//342
f 210//343 212//343 184//343
f 191//344 184//344 212//344
f 192//345 184//345 191//345
f 194//346 186//346 193//346
f 195//347 186//347 194//347
f 190//348 206//348 189//348
f 191//349 212//349 215//349
f 191//350 215//350 54//350
f 53//351 191//351 54//351
f 191//352 53//352 192//352
f 52//353 192//353 53//353
f 192//354 52//354 193//354
f 51//355 193//355 52//355
f 193//356 51//356 194//356
f 194//357 51//357 50//357
f 49//358 194//358 50//358
f 194//359 49//359 195//359
f 48//360 195//360 49//360
f 195//361 48//361 196//361
f 196//362 48//362 47//362
f 196//363 47//363 197//363
f 46//364 197//364 47//364
f 197//365 46//365 198//365
f 198//366 46//366 45//366
f 198//367 45//367 206//367
f 206//368 45//368 36//368
f 54//369 215//369 13//369
f 201//370 24//370 26//370
f 201//371 23//371 24//371
f 23//372 201//372 200//372
f 199//373 201//373 26//373
f 201//374 199//374 204//374
f 204//375 199//375 223//375
f 204//376 203//376 201//376
f 201//377 203//377 200//377
f 204//378 223//378 205//378
f 205//379 223//379 222//379
f 205//380 222//380 219//380
f 219//381 222//381 221//381
f 224//382 35//382 34//382
f 35//383 224//383 223//383
f 207//384 31//384 23//384
f 31//385 207//385 206//385
f 208//386 206//386 207//386
f 209//387 216//387 220//387
f 211//388 216//388 209//388
f 216//389 211//389 210//389
f 210//390 211//390 212//390
f 213//391 212//391 211//391
f 212//392 213//392 215//392
f 214//393 215//393 213//393
f 215//394 214//394 12//394
f 215//395 12//395 13//395
f 216//396 217//396 220//396
f 220//397 217//397 218//397
f 220//398 218//398 219//398
f 220//399 219//399 221//399
f 224//400 222//400 223//400
f 36//38 45//38 44//38
