# Blender 4.4.3
# www.blender.org
mtllib forearm_collision_E3M5.mtl
o forearm_collision_E3M5
v -13.116529 164.889297 65.924416
v -20.459780 156.506897 71.908615
v -6.898247 156.506897 74.443710
v 6.898201 156.506897 74.443710
v -0.000023 164.889297 67.212082
v -6.228134 164.889297 67.212082
v -0.000023 125.617798 67.212082
v -13.116529 125.617798 65.924416
v -6.228134 125.617798 67.212082
v 20.459740 156.506897 71.908615
v 13.116489 164.889297 65.924416
v 6.228096 164.889297 67.212082
v 13.116489 125.617798 65.924416
v 6.228096 125.617798 67.212082
v -25.733639 164.889297 62.110180
v -33.324577 156.506897 66.924767
v -18.472279 164.889297 64.923256
v -25.733639 125.617798 62.110180
v -18.472279 125.617798 64.923256
v 33.324539 156.506897 66.924767
v 25.733599 164.889297 62.110180
v 18.472229 164.889297 64.923256
v 25.733599 125.617798 62.110180
v 18.472229 125.617798 64.923256
v -13.168620 -0.000004 66.203026
v -0.000023 -0.000004 67.500031
v 13.168570 -0.000004 66.203026
v -0.000023 -0.000004 0.000023
v -13.168620 182.800003 66.203026
v -0.000023 182.800003 67.500031
v 13.168570 182.800003 66.203026
v -0.000023 182.800003 0.000023
v -37.370758 164.889297 55.913849
v -45.054558 156.506897 59.661869
v -30.087358 164.889297 60.423538
v -37.370758 125.617798 55.913849
v -30.087358 125.617798 60.423538
v 45.054508 156.506897 59.661869
v 37.370720 164.889297 55.913849
v 30.087318 164.889297 60.423538
v 37.370720 125.617798 55.913849
v 30.087318 125.617798 60.423538
v -25.831150 -0.000004 62.361889
v 25.831110 -0.000004 62.361889
v -25.831150 182.800003 62.361889
v 25.831110 182.800003 62.361889
v -37.501011 -0.000004 56.124218
v 37.500969 -0.000004 56.124218
v -37.501011 182.800003 56.124218
v 37.500969 182.800003 56.124218
v -47.584270 164.889297 47.570160
v -55.250248 156.506897 50.367260
v -40.677860 164.889297 53.866180
v -47.584270 125.617798 47.570160
v -40.677860 125.617798 53.866180
v 55.250198 156.506897 50.367260
v 47.584217 164.889297 47.570160
v 40.677818 164.889297 53.866180
v 47.584217 125.617798 47.570160
v 40.677818 125.617798 53.866180
v -47.729729 -0.000004 47.729729
v 47.729679 -0.000004 47.729729
v -47.729729 182.800003 47.729729
v 47.729679 182.800003 47.729729
v -55.984238 164.889297 37.395298
v -63.564468 156.506897 39.357460
v -49.883118 164.889297 45.474468
v -55.984238 125.617798 37.395298
v -49.883118 125.617798 45.474468
v 63.564430 156.506897 39.357460
v 55.984200 164.889297 37.395298
v 49.883080 164.889297 45.474468
v 55.984200 125.617798 37.395298
v 49.883080 125.617798 45.474468
v -56.124218 -0.000004 37.501011
v 56.124180 -0.000004 37.501011
v -56.124218 182.800003 37.501011
v 56.124180 182.800003 37.501011
v -62.249168 164.889297 25.775030
v -69.714081 156.506897 27.007389
v -57.389679 164.889297 35.534187
v -62.249168 125.617798 25.775030
v -57.389679 125.617798 35.534187
v 69.714027 156.506897 27.007389
v 62.249119 164.889297 25.775030
v 57.389637 164.889297 35.534187
v 62.249119 125.617798 25.775030
v 57.389637 125.617798 35.534187
v -62.361889 -0.000004 25.831150
v 62.361847 -0.000004 25.831150
v -62.361889 182.800003 25.831150
v 62.361847 182.800003 25.831150
v -66.138161 164.889297 13.150160
v -73.489655 156.506897 13.737610
v -62.941898 164.889297 24.383839
v -66.138161 125.617798 13.150160
v -62.941898 125.617798 24.383839
v 73.489616 156.506897 13.737610
v 66.138115 164.889297 13.150160
v 62.941860 164.889297 24.383839
v 66.138115 125.617798 13.150160
v 62.941860 125.617798 24.383839
v -66.203026 -0.000004 13.168620
v 66.202980 -0.000004 13.168620
v -66.203026 182.800003 13.168620
v 66.202980 182.800003 13.168620
v -66.350708 164.889297 12.403110
v -67.500031 164.889297 0.000023
v -74.762627 156.506897 0.000023
v -66.350708 125.617798 12.403110
v 74.762581 156.506897 0.000023
v 66.350655 164.889297 12.403110
v 66.350655 125.617798 12.403110
v 67.499977 125.617798 0.000023
v -67.500031 -0.000004 0.000023
v 67.499977 -0.000004 0.000023
v -67.500031 182.800003 0.000023
v 67.499977 182.800003 0.000023
v -67.500031 125.617798 0.000023
v 67.499977 164.889297 0.000023
v -73.489655 156.506897 -13.737570
v 73.489616 156.506897 -13.737570
v -66.350708 125.617798 -12.403069
v 66.350655 164.889297 -12.403069
v -66.203026 -0.000004 -13.168570
v 56.124180 -0.000004 -37.500969
v 62.361847 -0.000004 -25.831110
v 66.202980 -0.000004 -13.168570
v 25.831110 -0.000004 -62.361847
v 37.500969 -0.000004 -56.124180
v 47.729679 -0.000004 -47.729679
v -13.168620 -0.000004 -66.202980
v -0.000023 -0.000004 -67.499977
v 13.168570 -0.000004 -66.202980
v -47.729729 -0.000004 -47.729679
v -37.501011 -0.000004 -56.124180
v -25.831150 -0.000004 -62.361847
v -62.361889 -0.000004 -25.831110
v -56.124218 -0.000004 -37.500969
v 66.350655 125.617798 -12.403069
v -66.350708 164.889297 -12.403069
v -66.203026 182.800003 -13.168570
v -47.729729 182.800003 -47.729679
v -56.124218 182.800003 -37.500969
v -62.361889 182.800003 -25.831110
v -13.168620 182.800003 -66.202980
v -25.831150 182.800003 -62.361847
v -37.501011 182.800003 -56.124180
v 25.831110 182.800003 -62.361847
v 13.168570 182.800003 -66.202980
v -0.000023 182.800003 -67.499977
v 56.124180 182.800003 -37.500969
v 47.729679 182.800003 -47.729679
v 37.500969 182.800003 -56.124180
v 66.202980 182.800003 -13.168570
v 62.361847 182.800003 -25.831110
v -66.138161 125.617798 -13.150120
v 66.138115 125.617798 -13.150120
v -66.138161 164.889297 -13.150120
v 66.138115 164.889297 -13.150120
v -62.941898 125.617798 -24.383789
v -69.714081 156.506897 -27.007349
v 62.941860 125.617798 -24.383789
v 69.714027 156.506897 -27.007349
v -62.941898 164.889297 -24.383789
v 62.941860 164.889297 -24.383789
v -62.249168 125.617798 -25.774979
v 62.249119 125.617798 -25.774979
v -62.249168 164.889297 -25.774979
v 62.249119 164.889297 -25.774979
v -57.389679 125.617798 -35.534149
v -63.564468 156.506897 -39.357418
v 57.389637 125.617798 -35.534149
v 63.564430 156.506897 -39.357418
v -57.389679 164.889297 -35.534149
v 57.389637 164.889297 -35.534149
v -55.984238 125.617798 -37.395248
v 55.984200 125.617798 -37.395248
v -55.984238 164.889297 -37.395248
v 55.984200 164.889297 -37.395248
v -49.883118 125.617798 -45.474430
v -55.250248 156.506897 -50.367218
v 49.883080 125.617798 -45.474430
v 55.250198 156.506897 -50.367218
v -49.883118 164.889297 -45.474430
v 49.883080 164.889297 -45.474430
v -47.584270 125.617798 -47.570118
v 47.584217 125.617798 -47.570118
v -47.584270 164.889297 -47.570118
v 47.584217 164.889297 -47.570118
v -40.677860 125.617798 -53.866138
v -45.054558 156.506897 -59.661827
v 40.677818 125.617798 -53.866138
v 45.054508 156.506897 -59.661827
v -40.677860 164.889297 -53.866138
v 40.677818 164.889297 -53.866138
v -37.370758 125.617798 -55.913807
v 37.370720 125.617798 -55.913807
v -37.370758 164.889297 -55.913807
v 37.370720 164.889297 -55.913807
v -30.087358 125.617798 -60.423500
v -33.324577 156.506897 -66.924721
v 30.087318 125.617798 -60.423500
v 33.324539 156.506897 -66.924721
v -30.087358 164.889297 -60.423500
v 30.087318 164.889297 -60.423500
v -25.733639 125.617798 -62.110138
v 25.733599 125.617798 -62.110138
v -25.733639 164.889297 -62.110138
v 25.733599 164.889297 -62.110138
v -18.472279 125.617798 -64.923210
v -20.459780 156.506897 -71.908577
v 18.472229 125.617798 -64.923210
v 20.459740 156.506897 -71.908577
v -18.472279 164.889297 -64.923210
v 18.472229 164.889297 -64.923210
v -13.116529 125.617798 -65.924370
v 13.116489 125.617798 -65.924370
v -13.116529 164.889297 -65.924370
v 13.116489 164.889297 -65.924370
v -6.228134 125.617798 -67.212051
v -6.898247 156.506897 -74.443657
v 6.228096 125.617798 -67.212051
v 6.898201 156.506897 -74.443657
v -6.228134 164.889297 -67.212051
v 6.228096 164.889297 -67.212051
v -0.000023 125.617798 -67.212051
v -0.000023 164.889297 -67.212051
vn -0.1391 0.6532 0.7443
vn -0.0000 0.6532 0.7572
vn -0.0000 -0.2280 0.9737
vn -0.1789 -0.2280 0.9571
vn 0.1391 0.6532 0.7443
vn 0.1789 -0.2280 0.9571
vn -0.2735 0.6532 0.7060
vn -0.3517 -0.2280 0.9079
vn 0.2735 0.6532 0.7060
vn 0.3517 -0.2280 0.9079
vn -0.0980 -0.0026 0.9952
vn 0.0980 -0.0026 0.9952
vn -0.0000 0.0023 1.0000
vn -0.0000 -1.0000 -0.0000
vn -0.0980 0.0181 0.9950
vn -0.0000 -0.0161 0.9999
vn 0.0980 0.0181 0.9950
vn -0.0000 1.0000 -0.0000
vn -0.1837 0.0023 0.9830
vn 0.1837 0.0023 0.9830
vn -0.1837 -0.0158 0.9828
vn 0.1837 -0.0158 0.9828
vn -0.3986 0.6532 0.6438
vn -0.5126 -0.2280 0.8278
vn 0.3986 0.6532 0.6438
vn 0.5126 -0.2280 0.8278
vn -0.2903 -0.0025 0.9569
vn 0.2903 -0.0025 0.9569
vn -0.2902 0.0176 0.9568
vn -0.1837 -0.0158 0.9829
vn 0.1837 -0.0158 0.9829
vn 0.2902 0.0176 0.9568
vn -0.3612 0.0021 0.9325
vn 0.3612 0.0021 0.9325
vn -0.3612 -0.0151 0.9324
vn 0.3612 -0.0151 0.9324
vn -0.4714 -0.0024 0.8819
vn 0.4714 -0.0024 0.8819
vn -0.4713 0.0166 0.8818
vn 0.4713 0.0166 0.8818
vn -0.5264 0.0020 0.8502
vn 0.5264 0.0020 0.8502
vn -0.5264 -0.0138 0.8501
vn 0.5264 -0.0138 0.8501
vn -0.5101 0.6532 0.5596
vn -0.6560 -0.2280 0.7196
vn 0.5101 0.6532 0.5596
vn 0.6560 -0.2280 0.7196
vn -0.6344 -0.0021 0.7730
vn 0.6344 -0.0021 0.7730
vn -0.6343 0.0151 0.7729
vn 0.6343 0.0151 0.7729
vn -0.6737 0.0017 0.7390
vn 0.6737 0.0017 0.7390
vn -0.6736 -0.0121 0.7390
vn 0.6736 -0.0121 0.7390
vn -0.6042 0.6532 0.4563
vn -0.7770 -0.2280 0.5868
vn -0.6560 -0.2280 0.7195
vn 0.6042 0.6532 0.4563
vn 0.7770 -0.2280 0.5868
vn -0.7730 -0.0019 0.6344
vn 0.7730 -0.0019 0.6344
vn -0.7729 0.0131 0.6343
vn 0.7729 0.0131 0.6343
vn -0.7980 0.0014 0.6026
vn 0.7980 0.0014 0.6026
vn -0.7980 -0.0098 0.6026
vn 0.7980 -0.0098 0.6026
vn -0.6778 0.6532 0.3375
vn -0.8716 -0.2280 0.4340
vn 0.6778 0.6532 0.3375
vn 0.8716 -0.2280 0.4340
vn -0.8819 -0.0015 0.4714
vn 0.8819 -0.0015 0.4714
vn -0.8819 0.0105 0.4714
vn 0.8819 0.0105 0.4714
vn -0.8952 0.0010 0.4457
vn 0.8952 0.0010 0.4457
vn -0.8951 -0.0070 0.4457
vn 0.8951 -0.0070 0.4457
vn -0.7283 0.6532 0.2072
vn -0.9365 -0.2280 0.2665
vn 0.7283 0.6532 0.2072
vn 0.9365 -0.2280 0.2665
vn -0.9569 -0.0011 0.2903
vn 0.9569 -0.0011 0.2903
vn -0.9569 0.0075 0.2903
vn 0.9569 0.0075 0.2903
vn -0.9618 0.0005 0.2737
vn 0.9618 0.0005 0.2737
vn -0.9618 -0.0038 0.2737
vn 0.9618 -0.0038 0.2737
vn -0.7539 0.6532 0.0699
vn -0.9695 -0.2280 0.0898
vn 0.7539 0.6532 0.0699
vn 0.9695 -0.2280 0.0898
vn -0.9952 -0.0006 0.0980
vn 0.9952 -0.0006 0.0980
vn -0.9952 0.0040 0.0980
vn 0.9952 0.0040 0.0980
vn -0.9957 -0.0000 0.0923
vn 0.9957 -0.0000 0.0923
vn -0.9695 -0.2280 -0.0898
vn 0.7539 0.6532 -0.0699
vn -0.9957 -0.0000 -0.0923
vn -0.9952 -0.0006 -0.0980
vn 0.9695 -0.2280 -0.0898
vn -0.7539 0.6532 -0.0699
vn -0.9952 0.0040 -0.0980
vn 0.9952 -0.0006 -0.0980
vn 0.9957 -0.0000 -0.0923
vn 0.9952 0.0040 -0.0980
vn -0.9618 0.0005 -0.2737
vn -0.9365 -0.2280 -0.2665
vn 0.9618 0.0005 -0.2737
vn 0.9365 -0.2280 -0.2665
vn -0.9618 -0.0038 -0.2737
vn -0.7283 0.6532 -0.2072
vn 0.9618 -0.0038 -0.2737
vn 0.7283 0.6532 -0.2072
vn -0.9569 -0.0011 -0.2903
vn 0.9569 -0.0011 -0.2903
vn -0.9569 0.0075 -0.2903
vn 0.9569 0.0075 -0.2903
vn -0.8952 0.0010 -0.4457
vn -0.8716 -0.2280 -0.4340
vn 0.8952 0.0010 -0.4457
vn 0.8716 -0.2280 -0.4340
vn -0.8951 -0.0070 -0.4457
vn -0.6778 0.6532 -0.3375
vn 0.8951 -0.0070 -0.4457
vn 0.6778 0.6532 -0.3375
vn -0.8819 -0.0015 -0.4714
vn 0.8819 -0.0015 -0.4714
vn -0.8819 0.0105 -0.4714
vn 0.8819 0.0105 -0.4714
vn -0.7980 0.0014 -0.6026
vn -0.7770 -0.2280 -0.5868
vn 0.7980 0.0014 -0.6026
vn 0.7770 -0.2280 -0.5868
vn -0.7980 -0.0098 -0.6026
vn -0.6042 0.6532 -0.4563
vn 0.7980 -0.0098 -0.6026
vn 0.6042 0.6532 -0.4563
vn -0.7730 -0.0019 -0.6344
vn 0.7730 -0.0019 -0.6344
vn -0.7729 0.0131 -0.6343
vn 0.7729 0.0131 -0.6343
vn -0.6737 0.0017 -0.7390
vn -0.6560 -0.2280 -0.7196
vn 0.6737 0.0017 -0.7390
vn 0.6560 -0.2280 -0.7196
vn -0.6736 -0.0121 -0.7390
vn -0.5101 0.6532 -0.5596
vn 0.6736 -0.0121 -0.7390
vn 0.5101 0.6532 -0.5596
vn -0.6344 -0.0021 -0.7730
vn 0.6344 -0.0021 -0.7730
vn -0.6343 0.0151 -0.7729
vn 0.6343 0.0151 -0.7729
vn -0.5264 0.0020 -0.8502
vn -0.5126 -0.2280 -0.8278
vn 0.5264 0.0020 -0.8502
vn 0.5126 -0.2280 -0.8278
vn -0.5264 -0.0138 -0.8501
vn -0.3986 0.6532 -0.6438
vn 0.5264 -0.0138 -0.8501
vn 0.3986 0.6532 -0.6438
vn -0.4714 -0.0024 -0.8819
vn 0.4714 -0.0024 -0.8819
vn -0.4713 0.0166 -0.8818
vn 0.4713 0.0166 -0.8818
vn -0.3612 0.0021 -0.9325
vn -0.3517 -0.2280 -0.9079
vn 0.3612 0.0021 -0.9325
vn 0.3517 -0.2280 -0.9079
vn -0.3612 -0.0151 -0.9324
vn -0.2735 0.6532 -0.7060
vn 0.3612 -0.0151 -0.9324
vn 0.2735 0.6532 -0.7060
vn -0.2903 -0.0025 -0.9569
vn 0.2903 -0.0025 -0.9569
vn -0.2902 0.0176 -0.9568
vn 0.2902 0.0176 -0.9568
vn -0.1837 0.0023 -0.9830
vn -0.1789 -0.2280 -0.9571
vn 0.1837 0.0023 -0.9830
vn 0.1789 -0.2280 -0.9571
vn -0.1837 -0.0158 -0.9829
vn -0.1391 0.6532 -0.7443
vn 0.1837 -0.0158 -0.9829
vn 0.1391 0.6532 -0.7443
vn -0.1838 0.0023 -0.9830
vn 0.1838 0.0023 -0.9830
vn -0.1837 -0.0158 -0.9828
vn 0.1837 -0.0158 -0.9828
vn -0.0980 -0.0026 -0.9952
vn 0.0980 -0.0026 -0.9952
vn -0.0980 0.0181 -0.9950
vn 0.0980 0.0181 -0.9950
vn -0.0000 0.0023 -1.0000
vn -0.0000 -0.2280 -0.9737
vn -0.0000 -0.0161 -0.9999
vn -0.0000 0.6532 -0.7572
s 0
f 1//1 2//1 3//1
f 4//2 5//2 3//2
f 5//2 6//2 3//2
f 6//1 1//1 3//1
f 7//3 4//3 3//3
f 2//4 8//4 3//4
f 8//4 9//4 3//4
f 9//3 7//3 3//3
f 10//5 11//5 4//5
f 11//5 12//5 4//5
f 12//2 5//2 4//2
f 13//6 10//6 4//6
f 7//3 14//3 4//3
f 14//6 13//6 4//6
f 15//7 16//7 2//7
f 1//1 17//1 2//1
f 17//7 15//7 2//7
f 16//8 18//8 2//8
f 18//8 19//8 2//8
f 19//4 8//4 2//4
f 20//9 21//9 10//9
f 21//9 22//9 10//9
f 22//5 11//5 10//5
f 23//10 20//10 10//10
f 13//6 24//6 10//6
f 24//10 23//10 10//10
f 9//11 25//11 26//11
f 27//12 14//12 26//12
f 14//13 7//13 26//13
f 7//13 9//13 26//13
f 28//14 27//14 26//14
f 25//14 28//14 26//14
f 29//15 6//15 30//15
f 6//16 5//16 30//16
f 5//16 12//16 30//16
f 12//17 31//17 30//17
f 32//18 29//18 30//18
f 31//18 32//18 30//18
f 8//19 25//19 9//19
f 27//20 13//20 14//20
f 29//21 1//21 6//21
f 11//22 31//22 12//22
f 33//23 34//23 16//23
f 15//7 35//7 16//7
f 35//23 33//23 16//23
f 34//24 36//24 16//24
f 36//24 37//24 16//24
f 37//8 18//8 16//8
f 38//25 39//25 20//25
f 39//25 40//25 20//25
f 40//9 21//9 20//9
f 41//26 38//26 20//26
f 23//10 42//10 20//10
f 42//26 41//26 20//26
f 19//27 43//27 25//27
f 8//19 19//19 25//19
f 43//14 28//14 25//14
f 44//28 24//28 27//28
f 24//20 13//20 27//20
f 28//14 44//14 27//14
f 32//18 45//18 29//18
f 45//29 17//29 29//29
f 17//30 1//30 29//30
f 46//18 32//18 31//18
f 11//31 22//31 31//31
f 22//32 46//32 31//32
f 18//33 43//33 19//33
f 44//34 23//34 24//34
f 45//35 15//35 17//35
f 21//36 46//36 22//36
f 37//37 47//37 43//37
f 18//33 37//33 43//33
f 47//14 28//14 43//14
f 48//38 42//38 44//38
f 42//34 23//34 44//34
f 28//14 48//14 44//14
f 32//18 49//18 45//18
f 49//39 35//39 45//39
f 35//35 15//35 45//35
f 50//18 32//18 46//18
f 21//36 40//36 46//36
f 40//40 50//40 46//40
f 36//41 47//41 37//41
f 48//42 41//42 42//42
f 49//43 33//43 35//43
f 39//44 50//44 40//44
f 51//45 52//45 34//45
f 33//23 53//23 34//23
f 53//45 51//45 34//45
f 52//46 54//46 34//46
f 54//46 55//46 34//46
f 55//24 36//24 34//24
f 56//47 57//47 38//47
f 57//47 58//47 38//47
f 58//25 39//25 38//25
f 59//48 56//48 38//48
f 41//26 60//26 38//26
f 60//48 59//48 38//48
f 55//49 61//49 47//49
f 36//41 55//41 47//41
f 61//14 28//14 47//14
f 62//50 60//50 48//50
f 60//42 41//42 48//42
f 28//14 62//14 48//14
f 32//18 63//18 49//18
f 63//51 53//51 49//51
f 53//43 33//43 49//43
f 64//18 32//18 50//18
f 39//44 58//44 50//44
f 58//52 64//52 50//52
f 54//53 61//53 55//53
f 62//54 59//54 60//54
f 63//55 51//55 53//55
f 57//56 64//56 58//56
f 65//57 66//57 52//57
f 51//45 67//45 52//45
f 67//57 65//57 52//57
f 66//58 68//58 52//58
f 68//58 69//58 52//58
f 69//59 54//59 52//59
f 70//60 71//60 56//60
f 71//60 72//60 56//60
f 72//47 57//47 56//47
f 73//61 70//61 56//61
f 59//48 74//48 56//48
f 74//61 73//61 56//61
f 69//62 75//62 61//62
f 54//53 69//53 61//53
f 75//14 28//14 61//14
f 76//63 74//63 62//63
f 74//54 59//54 62//54
f 28//14 76//14 62//14
f 32//18 77//18 63//18
f 77//64 67//64 63//64
f 67//55 51//55 63//55
f 78//18 32//18 64//18
f 57//56 72//56 64//56
f 72//65 78//65 64//65
f 68//66 75//66 69//66
f 76//67 73//67 74//67
f 77//68 65//68 67//68
f 71//69 78//69 72//69
f 79//70 80//70 66//70
f 65//57 81//57 66//57
f 81//70 79//70 66//70
f 80//71 82//71 66//71
f 82//71 83//71 66//71
f 83//58 68//58 66//58
f 84//72 85//72 70//72
f 85//72 86//72 70//72
f 86//60 71//60 70//60
f 87//73 84//73 70//73
f 73//61 88//61 70//61
f 88//73 87//73 70//73
f 83//74 89//74 75//74
f 68//66 83//66 75//66
f 89//14 28//14 75//14
f 90//75 88//75 76//75
f 88//67 73//67 76//67
f 28//14 90//14 76//14
f 32//18 91//18 77//18
f 91//76 81//76 77//76
f 81//68 65//68 77//68
f 92//18 32//18 78//18
f 71//69 86//69 78//69
f 86//77 92//77 78//77
f 82//78 89//78 83//78
f 90//79 87//79 88//79
f 91//80 79//80 81//80
f 85//81 92//81 86//81
f 93//82 94//82 80//82
f 79//70 95//70 80//70
f 95//82 93//82 80//82
f 94//83 96//83 80//83
f 96//83 97//83 80//83
f 97//71 82//71 80//71
f 98//84 99//84 84//84
f 99//84 100//84 84//84
f 100//72 85//72 84//72
f 101//85 98//85 84//85
f 87//73 102//73 84//73
f 102//85 101//85 84//85
f 97//86 103//86 89//86
f 82//78 97//78 89//78
f 103//14 28//14 89//14
f 104//87 102//87 90//87
f 102//79 87//79 90//79
f 28//14 104//14 90//14
f 32//18 105//18 91//18
f 105//88 95//88 91//88
f 95//80 79//80 91//80
f 106//18 32//18 92//18
f 85//81 100//81 92//81
f 100//89 106//89 92//89
f 96//90 103//90 97//90
f 104//91 101//91 102//91
f 105//92 93//92 95//92
f 99//93 106//93 100//93
f 93//82 107//82 94//82
f 107//94 108//94 94//94
f 108//94 109//94 94//94
f 109//95 110//95 94//95
f 110//83 96//83 94//83
f 111//96 112//96 98//96
f 112//84 99//84 98//84
f 101//85 113//85 98//85
f 113//97 114//97 98//97
f 114//97 111//97 98//97
f 110//98 115//98 103//98
f 96//90 110//90 103//90
f 115//14 28//14 103//14
f 116//99 113//99 104//99
f 113//91 101//91 104//91
f 28//14 116//14 104//14
f 32//18 117//18 105//18
f 117//100 107//100 105//100
f 107//92 93//92 105//92
f 118//18 32//18 106//18
f 99//93 112//93 106//93
f 112//101 118//101 106//101
f 119//102 115//102 110//102
f 109//95 119//95 110//95
f 116//103 114//103 113//103
f 117//102 108//102 107//102
f 120//103 118//103 112//103
f 111//96 120//96 112//96
f 121//104 119//104 109//104
f 122//105 120//105 111//105
f 121//104 123//104 119//104
f 122//105 124//105 120//105
f 125//14 28//14 115//14
f 119//106 123//106 115//106
f 123//107 125//107 115//107
f 126//14 127//14 28//14
f 127//14 128//14 28//14
f 128//14 116//14 28//14
f 129//14 130//14 28//14
f 130//14 131//14 28//14
f 131//14 126//14 28//14
f 132//14 133//14 28//14
f 133//14 134//14 28//14
f 134//14 129//14 28//14
f 135//14 136//14 28//14
f 136//14 137//14 28//14
f 137//14 132//14 28//14
f 125//14 138//14 28//14
f 138//14 139//14 28//14
f 139//14 135//14 28//14
f 140//108 111//108 114//108
f 108//109 141//109 109//109
f 141//109 121//109 109//109
f 140//108 122//108 111//108
f 117//106 141//106 108//106
f 32//18 142//18 117//18
f 142//110 141//110 117//110
f 143//18 144//18 32//18
f 144//18 145//18 32//18
f 145//18 142//18 32//18
f 146//18 147//18 32//18
f 147//18 148//18 32//18
f 148//18 143//18 32//18
f 149//18 150//18 32//18
f 150//18 151//18 32//18
f 151//18 146//18 32//18
f 152//18 153//18 32//18
f 153//18 154//18 32//18
f 154//18 149//18 32//18
f 118//18 155//18 32//18
f 155//18 156//18 32//18
f 156//18 152//18 32//18
f 128//111 140//111 116//111
f 140//112 114//112 116//112
f 124//112 118//112 120//112
f 124//113 155//113 118//113
f 157//114 125//114 123//114
f 121//115 157//115 123//115
f 128//116 158//116 140//116
f 158//117 122//117 140//117
f 142//118 159//118 141//118
f 159//119 121//119 141//119
f 160//120 155//120 124//120
f 122//121 160//121 124//121
f 161//114 125//114 157//114
f 121//115 162//115 157//115
f 162//115 161//115 157//115
f 128//116 163//116 158//116
f 164//117 122//117 158//117
f 163//117 164//117 158//117
f 142//118 165//118 159//118
f 162//119 121//119 159//119
f 165//119 162//119 159//119
f 166//120 155//120 160//120
f 122//121 164//121 160//121
f 164//121 166//121 160//121
f 161//122 138//122 125//122
f 127//123 163//123 128//123
f 145//124 165//124 142//124
f 166//125 156//125 155//125
f 167//126 138//126 161//126
f 162//127 167//127 161//127
f 127//128 168//128 163//128
f 168//129 164//129 163//129
f 145//130 169//130 165//130
f 169//131 162//131 165//131
f 170//132 156//132 166//132
f 164//133 170//133 166//133
f 171//126 138//126 167//126
f 162//127 172//127 167//127
f 172//127 171//127 167//127
f 127//128 173//128 168//128
f 174//129 164//129 168//129
f 173//129 174//129 168//129
f 145//130 175//130 169//130
f 172//131 162//131 169//131
f 175//131 172//131 169//131
f 176//132 156//132 170//132
f 164//133 174//133 170//133
f 174//133 176//133 170//133
f 171//134 139//134 138//134
f 126//135 173//135 127//135
f 144//136 175//136 145//136
f 176//137 152//137 156//137
f 177//138 139//138 171//138
f 172//139 177//139 171//139
f 126//140 178//140 173//140
f 178//141 174//141 173//141
f 144//142 179//142 175//142
f 179//143 172//143 175//143
f 180//144 152//144 176//144
f 174//145 180//145 176//145
f 181//138 139//138 177//138
f 172//139 182//139 177//139
f 182//139 181//139 177//139
f 126//140 183//140 178//140
f 184//141 174//141 178//141
f 183//141 184//141 178//141
f 144//142 185//142 179//142
f 182//143 172//143 179//143
f 185//143 182//143 179//143
f 186//144 152//144 180//144
f 174//145 184//145 180//145
f 184//145 186//145 180//145
f 181//146 135//146 139//146
f 131//147 183//147 126//147
f 143//148 185//148 144//148
f 186//149 153//149 152//149
f 187//150 135//150 181//150
f 182//151 187//151 181//151
f 131//152 188//152 183//152
f 188//153 184//153 183//153
f 143//154 189//154 185//154
f 189//155 182//155 185//155
f 190//156 153//156 186//156
f 184//157 190//157 186//157
f 191//150 135//150 187//150
f 182//151 192//151 187//151
f 192//151 191//151 187//151
f 131//152 193//152 188//152
f 194//153 184//153 188//153
f 193//153 194//153 188//153
f 143//154 195//154 189//154
f 192//155 182//155 189//155
f 195//155 192//155 189//155
f 196//156 153//156 190//156
f 184//157 194//157 190//157
f 194//157 196//157 190//157
f 191//158 136//158 135//158
f 130//159 193//159 131//159
f 148//160 195//160 143//160
f 196//161 154//161 153//161
f 197//162 136//162 191//162
f 192//163 197//163 191//163
f 130//164 198//164 193//164
f 198//165 194//165 193//165
f 148//166 199//166 195//166
f 199//167 192//167 195//167
f 200//168 154//168 196//168
f 194//169 200//169 196//169
f 201//162 136//162 197//162
f 192//163 202//163 197//163
f 202//163 201//163 197//163
f 130//164 203//164 198//164
f 204//165 194//165 198//165
f 203//165 204//165 198//165
f 148//166 205//166 199//166
f 202//167 192//167 199//167
f 205//167 202//167 199//167
f 206//168 154//168 200//168
f 194//169 204//169 200//169
f 204//169 206//169 200//169
f 201//170 137//170 136//170
f 129//171 203//171 130//171
f 147//172 205//172 148//172
f 206//173 149//173 154//173
f 207//174 137//174 201//174
f 202//175 207//175 201//175
f 129//176 208//176 203//176
f 208//177 204//177 203//177
f 147//178 209//178 205//178
f 209//179 202//179 205//179
f 210//180 149//180 206//180
f 204//181 210//181 206//181
f 211//174 137//174 207//174
f 202//175 212//175 207//175
f 212//175 211//175 207//175
f 129//176 213//176 208//176
f 214//177 204//177 208//177
f 213//177 214//177 208//177
f 147//178 215//178 209//178
f 212//179 202//179 209//179
f 215//179 212//179 209//179
f 216//180 149//180 210//180
f 204//181 214//181 210//181
f 214//181 216//181 210//181
f 211//182 132//182 137//182
f 134//183 213//183 129//183
f 146//184 215//184 147//184
f 216//185 150//185 149//185
f 217//186 132//186 211//186
f 212//187 217//187 211//187
f 134//188 218//188 213//188
f 218//189 214//189 213//189
f 146//190 219//190 215//190
f 219//191 212//191 215//191
f 220//192 150//192 216//192
f 214//193 220//193 216//193
f 221//194 132//194 217//194
f 212//187 222//187 217//187
f 222//187 221//187 217//187
f 134//195 223//195 218//195
f 224//189 214//189 218//189
f 223//189 224//189 218//189
f 146//196 225//196 219//196
f 222//191 212//191 219//191
f 225//191 222//191 219//191
f 226//197 150//197 220//197
f 214//193 224//193 220//193
f 224//193 226//193 220//193
f 221//198 133//198 132//198
f 133//199 223//199 134//199
f 151//200 225//200 146//200
f 226//201 151//201 150//201
f 227//202 133//202 221//202
f 222//203 227//203 221//203
f 223//202 133//202 227//202
f 222//203 224//203 227//203
f 224//203 223//203 227//203
f 151//204 228//204 225//204
f 228//205 222//205 225//205
f 151//204 226//204 228//204
f 224//205 222//205 228//205
f 226//205 224//205 228//205
